<?xml version="1.0" encoding="UTF-8" standalone="no"?>
<!DOCTYPE svg PUBLIC "-//W3C//DTD SVG 1.1//EN"
 "http://www.w3.org/Graphics/SVG/1.1/DTD/svg11.dtd">
<!-- Generated by graphviz version 2.46.0 (20210119.1425)
 -->
<!-- Title: dependencies Pages: 1 -->
<svg width="504pt" height="284pt"
 viewBox="0.00 0.00 504.00 284.00" xmlns="http://www.w3.org/2000/svg" xmlns:xlink="http://www.w3.org/1999/xlink">
<g id="graph0" class="graph" transform="scale(1 1) rotate(0) translate(4 280)">
<title>dependencies</title>
<polygon fill="white" stroke="transparent" points="-4,4 -4,-280 500,-280 500,4 -4,4"/>
<text text-anchor="start" x="227.01" y="-42.4" font-family="sans-serif" font-weight="bold" font-size="14.00">Legend</text>
<polygon fill="#ffffb3" stroke="transparent" points="14,-10 14,-30 34,-30 34,-10 14,-10"/>
<text text-anchor="start" x="37.63" y="-15.4" font-family="sans-serif" font-size="14.00"> &#160;Declarations</text>
<polygon fill="#8dd3c7" stroke="transparent" points="127,-10 127,-30 147,-30 147,-10 127,-10"/>
<text text-anchor="start" x="150.73" y="-15.4" font-family="sans-serif" font-size="14.00"> &#160;Module</text>
<polygon fill="#80b1d3" stroke="transparent" points="213,-10 213,-30 233,-30 233,-10 213,-10"/>
<text text-anchor="start" x="236.78" y="-15.4" font-family="sans-serif" font-size="14.00"> &#160;Bootstrap</text>
<polygon fill="#fdb462" stroke="transparent" points="310,-10 310,-30 330,-30 330,-10 310,-10"/>
<text text-anchor="start" x="333.67" y="-15.4" font-family="sans-serif" font-size="14.00"> &#160;Providers</text>
<polygon fill="#fb8072" stroke="transparent" points="406,-10 406,-30 426,-30 426,-10 406,-10"/>
<text text-anchor="start" x="429.73" y="-15.4" font-family="sans-serif" font-size="14.00"> &#160;Exports</text>
<g id="clust1" class="cluster">
<title>cluster_SitmunFrontendCoreModule</title>
<polygon fill="none" stroke="black" stroke-dasharray="1,5" points="17,-70 17,-268 479,-268 479,-70 17,-70"/>
</g>
<g id="clust6" class="cluster">
<title>cluster_SitmunFrontendCoreModule_exports</title>
<polygon fill="none" stroke="black" points="25,-208 25,-260 471,-260 471,-208 25,-208"/>
</g>
<g id="clust2" class="cluster">
<title>cluster_SitmunFrontendCoreModule_declarations</title>
<polygon fill="none" stroke="black" points="29,-78 29,-130 467,-130 467,-78 29,-78"/>
</g>
<!-- HasAnyAuthorityDirective -->
<g id="node1" class="node">
<title>HasAnyAuthorityDirective</title>
<polygon fill="#ffffb3" stroke="black" points="459.39,-122 290.61,-122 290.61,-86 459.39,-86 459.39,-122"/>
<text text-anchor="middle" x="375" y="-99.8" font-family="Times,serif" font-size="14.00">HasAnyAuthorityDirective</text>
</g>
<!-- SitmunFrontendCoreModule -->
<g id="node3" class="node">
<title>SitmunFrontendCoreModule</title>
<polygon fill="#8dd3c7" stroke="black" points="244.76,-187 241.76,-191 220.76,-191 217.76,-187 67.24,-187 67.24,-151 244.76,-151 244.76,-187"/>
<text text-anchor="middle" x="156" y="-164.8" font-family="Times,serif" font-size="14.00">SitmunFrontendCoreModule</text>
</g>
<!-- HasAnyAuthorityDirective&#45;&gt;SitmunFrontendCoreModule -->
<g id="edge1" class="edge">
<title>HasAnyAuthorityDirective&#45;&gt;SitmunFrontendCoreModule</title>
<path fill="none" stroke="black" d="M403.15,-122.02C403.15,-139.37 403.15,-163 403.15,-163 403.15,-163 254.88,-163 254.88,-163"/>
<polygon fill="black" stroke="black" points="254.88,-159.5 244.88,-163 254.88,-166.5 254.88,-159.5"/>
</g>
<!-- HasAnyAuthorityOnTerritoryDirective -->
<g id="node2" class="node">
<title>HasAnyAuthorityOnTerritoryDirective</title>
<polygon fill="#ffffb3" stroke="black" points="273.03,-122 36.97,-122 36.97,-86 273.03,-86 273.03,-122"/>
<text text-anchor="middle" x="155" y="-99.8" font-family="Times,serif" font-size="14.00">HasAnyAuthorityOnTerritoryDirective</text>
</g>
<!-- HasAnyAuthorityOnTerritoryDirective&#45;&gt;SitmunFrontendCoreModule -->
<g id="edge2" class="edge">
<title>HasAnyAuthorityOnTerritoryDirective&#45;&gt;SitmunFrontendCoreModule</title>
<path fill="none" stroke="black" d="M156,-122.11C156,-122.11 156,-140.99 156,-140.99"/>
<polygon fill="black" stroke="black" points="152.5,-140.99 156,-150.99 159.5,-140.99 152.5,-140.99"/>
</g>
<!-- HasAnyAuthorityDirective  -->
<g id="node4" class="node">
<title>HasAnyAuthorityDirective </title>
<polygon fill="#fb8072" stroke="black" points="462.89,-252 291.11,-252 291.11,-216 462.89,-216 462.89,-252"/>
<text text-anchor="middle" x="377" y="-229.8" font-family="Times,serif" font-size="14.00">HasAnyAuthorityDirective </text>
</g>
<!-- SitmunFrontendCoreModule&#45;&gt;HasAnyAuthorityDirective  -->
<g id="edge3" class="edge">
<title>SitmunFrontendCoreModule&#45;&gt;HasAnyAuthorityDirective </title>
<path fill="none" stroke="black" stroke-dasharray="5,2" d="M244.84,-175C294.74,-175 347.1,-175 347.1,-175 347.1,-175 347.1,-205.98 347.1,-205.98"/>
<polygon fill="black" stroke="black" points="343.6,-205.98 347.1,-215.98 350.6,-205.98 343.6,-205.98"/>
</g>
<!-- HasAnyAuthorityOnTerritoryDirective  -->
<g id="node5" class="node">
<title>HasAnyAuthorityOnTerritoryDirective </title>
<polygon fill="#fb8072" stroke="black" points="272.53,-252 33.47,-252 33.47,-216 272.53,-216 272.53,-252"/>
<text text-anchor="middle" x="153" y="-229.8" font-family="Times,serif" font-size="14.00">HasAnyAuthorityOnTerritoryDirective </text>
</g>
<!-- SitmunFrontendCoreModule&#45;&gt;HasAnyAuthorityOnTerritoryDirective  -->
<g id="edge4" class="edge">
<title>SitmunFrontendCoreModule&#45;&gt;HasAnyAuthorityOnTerritoryDirective </title>
<path fill="none" stroke="black" stroke-dasharray="5,2" d="M156,-187.11C156,-187.11 156,-205.99 156,-205.99"/>
<polygon fill="black" stroke="black" points="152.5,-205.99 156,-215.99 159.5,-205.99 152.5,-205.99"/>
</g>
</g>
</svg>
