<?xml version="1.0" encoding="UTF-8" standalone="no"?>
<!DOCTYPE svg PUBLIC "-//W3C//DTD SVG 1.1//EN"
 "http://www.w3.org/Graphics/SVG/1.1/DTD/svg11.dtd">
<!-- Generated by graphviz version 2.40.1 (20161225.0304)
 -->
<!-- Title: dependencies Pages: 1 -->
<svg width="857pt" height="284pt"
 viewBox="0.00 0.00 857.00 284.00" xmlns="http://www.w3.org/2000/svg" xmlns:xlink="http://www.w3.org/1999/xlink">
<g id="graph0" class="graph" transform="scale(1 1) rotate(0) translate(4 280)">
<title>dependencies</title>
<polygon fill="#ffffff" stroke="transparent" points="-4,4 -4,-280 853,-280 853,4 -4,4"/>
<text text-anchor="start" x="403.5091" y="-42.4" font-family="sans-serif" font-weight="bold" font-size="14.00" fill="#000000">Legend</text>
<polygon fill="#ffffb3" stroke="transparent" points="190.5,-10 190.5,-30 210.5,-30 210.5,-10 190.5,-10"/>
<text text-anchor="start" x="214.129" y="-15.4" font-family="sans-serif" font-size="14.00" fill="#000000"> &#160;Declarations</text>
<polygon fill="#8dd3c7" stroke="transparent" points="303.5,-10 303.5,-30 323.5,-30 323.5,-10 303.5,-10"/>
<text text-anchor="start" x="327.2251" y="-15.4" font-family="sans-serif" font-size="14.00" fill="#000000"> &#160;Module</text>
<polygon fill="#80b1d3" stroke="transparent" points="389.5,-10 389.5,-30 409.5,-30 409.5,-10 389.5,-10"/>
<text text-anchor="start" x="413.2812" y="-15.4" font-family="sans-serif" font-size="14.00" fill="#000000"> &#160;Bootstrap</text>
<polygon fill="#fdb462" stroke="transparent" points="486.5,-10 486.5,-30 506.5,-30 506.5,-10 486.5,-10"/>
<text text-anchor="start" x="510.1732" y="-15.4" font-family="sans-serif" font-size="14.00" fill="#000000"> &#160;Providers</text>
<polygon fill="#fb8072" stroke="transparent" points="582.5,-10 582.5,-30 602.5,-30 602.5,-10 582.5,-10"/>
<text text-anchor="start" x="606.2258" y="-15.4" font-family="sans-serif" font-size="14.00" fill="#000000"> &#160;Exports</text>
<g id="clust1" class="cluster">
<title>cluster_AppModule</title>
<polygon fill="none" stroke="#000000" stroke-dasharray="1,5" points="8,-70 8,-268 841,-268 841,-70 8,-70"/>
</g>
<g id="clust2" class="cluster">
<title>cluster_AppModule_declarations</title>
<polygon fill="none" stroke="#000000" points="578,-78 578,-130 833,-130 833,-78 578,-78"/>
</g>
<g id="clust5" class="cluster">
<title>cluster_AppModule_imports</title>
<polygon fill="none" stroke="#000000" points="246,-78 246,-130 570,-130 570,-78 246,-78"/>
</g>
<g id="clust7" class="cluster">
<title>cluster_AppModule_bootstrap</title>
<polygon fill="none" stroke="#000000" points="437,-208 437,-260 561,-260 561,-208 437,-208"/>
</g>
<g id="clust8" class="cluster">
<title>cluster_AppModule_providers</title>
<polygon fill="none" stroke="#000000" points="16,-78 16,-130 238,-130 238,-78 16,-78"/>
</g>
<!-- AppComponent -->
<g id="node1" class="node">
<title>AppComponent</title>
<polygon fill="#ffffb3" stroke="#000000" points="824.9399,-122 719.0601,-122 719.0601,-86 824.9399,-86 824.9399,-122"/>
<text text-anchor="middle" x="772" y="-99.8" font-family="Times,serif" font-size="14.00" fill="#000000">AppComponent</text>
</g>
<!-- AppModule -->
<g id="node3" class="node">
<title>AppModule</title>
<polygon fill="#8dd3c7" stroke="#000000" points="540.6571,-187 537.6571,-191 516.6571,-191 513.6571,-187 457.3429,-187 457.3429,-151 540.6571,-151 540.6571,-187"/>
<text text-anchor="middle" x="499" y="-164.8" font-family="Times,serif" font-size="14.00" fill="#000000">AppModule</text>
</g>
<!-- AppComponent&#45;&gt;AppModule -->
<g id="edge1" class="edge">
<title>AppComponent&#45;&gt;AppModule</title>
<path fill="none" stroke="#000000" d="M772,-122.2843C772,-143.3211 772,-175 772,-175 772,-175 550.76,-175 550.76,-175"/>
<polygon fill="#000000" stroke="#000000" points="550.76,-171.5001 540.76,-175 550.76,-178.5001 550.76,-171.5001"/>
</g>
<!-- HomeComponent -->
<g id="node2" class="node">
<title>HomeComponent</title>
<polygon fill="#ffffb3" stroke="#000000" points="701.5451,-122 586.4549,-122 586.4549,-86 701.5451,-86 701.5451,-122"/>
<text text-anchor="middle" x="644" y="-99.8" font-family="Times,serif" font-size="14.00" fill="#000000">HomeComponent</text>
</g>
<!-- HomeComponent&#45;&gt;AppModule -->
<g id="edge2" class="edge">
<title>HomeComponent&#45;&gt;AppModule</title>
<path fill="none" stroke="#000000" d="M644,-122.0225C644,-139.3734 644,-163 644,-163 644,-163 550.94,-163 550.94,-163"/>
<polygon fill="#000000" stroke="#000000" points="550.94,-159.5001 540.94,-163 550.94,-166.5001 550.94,-159.5001"/>
</g>
<!-- AppComponent  -->
<g id="node6" class="node">
<title>AppComponent </title>
<polygon fill="#80b1d3" stroke="#000000" points="553.439,-252 444.561,-252 444.561,-216 553.439,-216 553.439,-252"/>
<text text-anchor="middle" x="499" y="-229.8" font-family="Times,serif" font-size="14.00" fill="#000000">AppComponent </text>
</g>
<!-- AppModule&#45;&gt;AppComponent  -->
<g id="edge5" class="edge">
<title>AppModule&#45;&gt;AppComponent </title>
<path fill="none" stroke="#000000" stroke-dasharray="1,5" d="M499,-187.1061C499,-187.1061 499,-205.991 499,-205.991"/>
<polygon fill="#000000" stroke="#000000" points="495.5001,-205.9909 499,-215.991 502.5001,-205.991 495.5001,-205.9909"/>
</g>
<!-- AngularHalModule -->
<g id="node4" class="node">
<title>AngularHalModule</title>
<polygon fill="#8dd3c7" stroke="#000000" points="561.6345,-122 558.6345,-126 537.6345,-126 534.6345,-122 436.3655,-122 436.3655,-86 561.6345,-86 561.6345,-122"/>
<text text-anchor="middle" x="499" y="-99.8" font-family="Times,serif" font-size="14.00" fill="#000000">AngularHalModule</text>
</g>
<!-- AngularHalModule&#45;&gt;AppModule -->
<g id="edge3" class="edge">
<title>AngularHalModule&#45;&gt;AppModule</title>
<path fill="none" stroke="#000000" d="M499,-122.1061C499,-122.1061 499,-140.991 499,-140.991"/>
<polygon fill="#000000" stroke="#000000" points="495.5001,-140.9909 499,-150.991 502.5001,-140.991 495.5001,-140.9909"/>
</g>
<!-- SitmunPluginCoreModule -->
<g id="node5" class="node">
<title>SitmunPluginCoreModule</title>
<polygon fill="#8dd3c7" stroke="#000000" points="417.7799,-122 414.7799,-126 393.7799,-126 390.7799,-122 254.2201,-122 254.2201,-86 417.7799,-86 417.7799,-122"/>
<text text-anchor="middle" x="336" y="-99.8" font-family="Times,serif" font-size="14.00" fill="#000000">SitmunPluginCoreModule</text>
</g>
<!-- SitmunPluginCoreModule&#45;&gt;AppModule -->
<g id="edge4" class="edge">
<title>SitmunPluginCoreModule&#45;&gt;AppModule</title>
<path fill="none" stroke="#000000" d="M336,-122.0225C336,-139.3734 336,-163 336,-163 336,-163 447.0234,-163 447.0234,-163"/>
<polygon fill="#000000" stroke="#000000" points="447.0235,-166.5001 457.0234,-163 447.0234,-159.5001 447.0235,-166.5001"/>
</g>
<!-- AuthExpiredInterceptor -->
<g id="node7" class="node">
<title>AuthExpiredInterceptor</title>
<ellipse fill="#fdb462" stroke="#000000" cx="127" cy="-104" rx="103.052" ry="18"/>
<text text-anchor="middle" x="127" y="-99.8" font-family="Times,serif" font-size="14.00" fill="#000000">AuthExpiredInterceptor</text>
</g>
<!-- AuthExpiredInterceptor&#45;&gt;AppModule -->
<g id="edge6" class="edge">
<title>AuthExpiredInterceptor&#45;&gt;AppModule</title>
<path fill="none" stroke="#000000" d="M127,-122.2843C127,-143.3211 127,-175 127,-175 127,-175 447.05,-175 447.05,-175"/>
<polygon fill="#000000" stroke="#000000" points="447.05,-178.5001 457.05,-175 447.05,-171.5001 447.05,-178.5001"/>
</g>
</g>
</svg>
