<svg xmlns="http://www.w3.org/2000/svg" width="16" height="16" viewBox="0 0 16 16">
  <g id="flag_oc2" transform="translate(-605.521 -322.174)">
    <g id="Grupo_643" data-name="Grupo 643">
      <g id="flag_en" data-name="flag en">
        <rect id="Rectángulo_628" data-name="Rectángulo 628" width="16" height="16" transform="translate(605.522 322.174)" fill="none"/>
        <g id="Grupo_642" data-name="Grupo 642">
          <path id="Icon_material-flag" data-name="Icon material-flag" d="M607.522,323.174v13.637h1.6V331.2l10.436.081v-8.1Z" fill="#4f4f4f"/>
          <path id="Trazado_1096" data-name="Trazado 1096" d="M609.1,323.174v8.12h10.454v-8.12Z" fill="#da121a"/>
        </g>
      </g>
    </g>
    <g id="Creu_occitana_amb_fons" data-name="Creu occitana amb fons">
      <path id="path2895" d="M611.353,326.992a.241.241,0,0,1,.221.144,1.6,1.6,0,0,0,.6-1.025h-.01a.239.239,0,1,1,.146-.043,3.114,3.114,0,0,0,1.559.7h0a3.078,3.078,0,0,0-.709-1.546.242.242,0,0,1-.192.1.239.239,0,1,1,.24-.239v.01a1.618,1.618,0,0,0,1.032-.6.238.238,0,0,1,.1-.458h0a.24.24,0,0,1,.248.229.237.237,0,0,1-.148.229,1.618,1.618,0,0,0,1.02.6v-.01a.24.24,0,1,1,.48,0,.239.239,0,0,1-.239.241h0a.242.242,0,0,1-.192-.1,3.085,3.085,0,0,0-.708,1.546h0a3.118,3.118,0,0,0,1.56-.7.241.241,0,1,1,.145.048h-.01a1.6,1.6,0,0,0,.6,1.025.239.239,0,1,1,.125.314.235.235,0,0,1-.125-.125,1.6,1.6,0,0,0-.6,1.025h.01a.239.239,0,1,1,0,.478.239.239,0,0,1-.142-.43,3.128,3.128,0,0,0-1.559-.706h0a3.075,3.075,0,0,0,.711,1.548.245.245,0,0,1,.192-.1.239.239,0,1,1-.24.239v-.01a1.623,1.623,0,0,0-1.032.6.238.238,0,0,1-.1.458h0a.238.238,0,0,1-.1-.458,1.623,1.623,0,0,0-1.032-.6v.01a.24.24,0,0,1-.48,0,.241.241,0,0,1,.239-.241h0a.245.245,0,0,1,.192.1,3.075,3.075,0,0,0,.711-1.548h0a3.128,3.128,0,0,0-1.559.706.24.24,0,1,1-.145-.048h.01a1.6,1.6,0,0,0-.6-1.025.24.24,0,1,1-.221-.333Zm.568.238a1.56,1.56,0,0,1,.457.722,3.26,3.26,0,0,1,1.814-.578h0a3.2,3.2,0,0,1-.583,1.8,1.575,1.575,0,0,1,.727.455h0a1.586,1.586,0,0,1,.724-.461,3.206,3.206,0,0,1-.583-1.8h0a3.26,3.26,0,0,1,1.814.578,1.552,1.552,0,0,1,.457-.721h0a1.553,1.553,0,0,1-.458-.722,3.252,3.252,0,0,1-1.814.578h0a3.207,3.207,0,0,1,.583-1.8,1.567,1.567,0,0,1-.726-.454h0a1.559,1.559,0,0,1-.727.455,3.2,3.2,0,0,1,.583,1.8h0a3.252,3.252,0,0,1-1.814-.578,1.547,1.547,0,0,1-.457.721h0Z" fill="#fcdd09"/>
    </g>
  </g>
</svg>
