<svg xmlns="http://www.w3.org/2000/svg" width="16" height="16" viewBox="0 0 16 16"><defs><style>.a{opacity:0;}.b{fill:#fff;}.c{fill:none;stroke:#707070;}</style></defs><g transform="translate(79.847 -231.331)"><g class="a" transform="translate(-79.847 231.582)"><rect class="b" width="16" height="16" transform="translate(0 -0.251)"/><rect class="c" width="14.624" height="14.624" transform="translate(0.562 0.562)"/></g><path d="M-75.675,241.045a2.458,2.458,0,0,0-2.461,2.455v.007a1.665,1.665,0,0,1-1.641,1.641,4.248,4.248,0,0,0,3.283,1.641,3.281,3.281,0,0,0,3.281-3.281h0a2.457,2.457,0,0,0-2.455-2.461Zm11.249-7.689-1.1-1.1a.817.817,0,0,0-1.155,0v0l-7.352,7.351,2.257,2.257,7.353-7.353a.816.816,0,0,0,0-1.155h0Z" transform="translate(0.009 0.054)"/></g></svg>