<svg xmlns="http://www.w3.org/2000/svg" width="16" height="16" viewBox="0 0 16 16"><defs><style>.a{fill:none;}</style></defs><g transform="translate(105.841 -305.973)"><rect class="a" width="16" height="16" transform="translate(-105.841 305.973)"/><path d="M-97.84,321.689a.868.868,0,0,0,.642-.287c.553-.617,5.4-6.11,5.4-9.211a6.043,6.043,0,0,0-6.153-5.933,6.044,6.044,0,0,0-5.933,5.933c0,3.1,4.849,8.6,5.4,9.211A.867.867,0,0,0-97.84,321.689Zm-2.59-9.5a2.59,2.59,0,0,1,2.59-2.59,2.59,2.59,0,0,1,2.59,2.59,2.591,2.591,0,0,1-2.59,2.59,2.592,2.592,0,0,1-2.59-2.588Z"/></g></svg>