<svg xmlns="http://www.w3.org/2000/svg" width="16" height="16" viewBox="0 0 16 16"><defs><style>.a{fill:rgba(255,255,255,0);}</style></defs><g transform="translate(100.857 -224.054)"><rect class="a" width="16" height="16" transform="translate(-100.857 224.054)"/><path d="M-98.328,235.376h-1.956a.489.489,0,0,0-.489.489h0v1.956a.488.488,0,0,0,.489.489h1.956a.489.489,0,0,0,.489-.489h0v-1.956a.49.49,0,0,0-.489-.489Zm0-9.783h-1.956a.489.489,0,0,0-.489.489v1.956a.488.488,0,0,0,.489.489h1.956a.489.489,0,0,0,.489-.489h0v-1.956A.49.49,0,0,0-98.328,225.593Zm0,4.892h-1.956a.489.489,0,0,0-.489.489h0v1.956a.488.488,0,0,0,.489.489h1.956a.489.489,0,0,0,.489-.489h0v-1.956a.489.489,0,0,0-.489-.487Zm12.717,5.38h-9.782a.489.489,0,0,0-.489.489h0v.979a.488.488,0,0,0,.489.489h9.782a.489.489,0,0,0,.489-.489h0v-.979a.49.49,0,0,0-.489-.489Zm0-9.783h-9.782a.489.489,0,0,0-.489.489h0v.974a.488.488,0,0,0,.489.489h9.782a.489.489,0,0,0,.489-.489h0v-.973a.49.49,0,0,0-.488-.49Zm0,4.892h-9.782a.489.489,0,0,0-.489.489h0v.979a.488.488,0,0,0,.489.489h9.782a.489.489,0,0,0,.489-.489h0v-.979a.49.49,0,0,0-.489-.489Z" transform="translate(0.011 0.182)"/></g></svg>