<svg xmlns="http://www.w3.org/2000/svg" xmlns:xlink="http://www.w3.org/1999/xlink" contentStyleType="text/css" height="2093px" preserveAspectRatio="none" style="width:1818px;height:2093px;background:#FFFFFF;" version="1.1" viewBox="0 0 1818 2093" width="1818px" zoomAndPan="magnify"><defs/><g><line style="stroke:#181818;stroke-width:0.5;stroke-dasharray:5.0,5.0;" x1="33" x2="33" y1="85.1875" y2="2009.0781"/><line style="stroke:#181818;stroke-width:0.5;stroke-dasharray:5.0,5.0;" x1="184" x2="184" y1="85.1875" y2="2009.0781"/><line style="stroke:#181818;stroke-width:0.5;stroke-dasharray:5.0,5.0;" x1="323" x2="323" y1="85.1875" y2="2009.0781"/><line style="stroke:#181818;stroke-width:0.5;stroke-dasharray:5.0,5.0;" x1="470" x2="470" y1="85.1875" y2="2009.0781"/><line style="stroke:#181818;stroke-width:0.5;stroke-dasharray:5.0,5.0;" x1="610" x2="610" y1="85.1875" y2="2009.0781"/><line style="stroke:#181818;stroke-width:0.5;stroke-dasharray:5.0,5.0;" x1="768" x2="768" y1="85.1875" y2="2009.0781"/><line style="stroke:#181818;stroke-width:0.5;stroke-dasharray:5.0,5.0;" x1="1010" x2="1010" y1="85.1875" y2="2009.0781"/><line style="stroke:#181818;stroke-width:0.5;stroke-dasharray:5.0,5.0;" x1="1129" x2="1129" y1="85.1875" y2="2009.0781"/><line style="stroke:#181818;stroke-width:0.5;stroke-dasharray:5.0,5.0;" x1="1274" x2="1274" y1="85.1875" y2="2009.0781"/><line style="stroke:#181818;stroke-width:0.5;stroke-dasharray:5.0,5.0;" x1="1394" x2="1394" y1="85.1875" y2="2009.0781"/><text fill="#000000" font-family="sans-serif" font-size="14" lengthAdjust="spacing" textLength="51" x="5" y="81.8857">Usuario</text><ellipse cx="33.5" cy="17.3906" fill="#E2E2F0" rx="8" ry="8" style="stroke:#181818;stroke-width:0.5;"/><path d="M33.5,25.3906 L33.5,52.3906 M20.5,33.3906 L46.5,33.3906 M33.5,52.3906 L20.5,67.3906 M33.5,52.3906 L46.5,67.3906 " fill="none" style="stroke:#181818;stroke-width:0.5;"/><text fill="#000000" font-family="sans-serif" font-size="14" lengthAdjust="spacing" textLength="51" x="5" y="2021.0732">Usuario</text><ellipse cx="33.5" cy="2032.875" fill="#E2E2F0" rx="8" ry="8" style="stroke:#181818;stroke-width:0.5;"/><path d="M33.5,2040.875 L33.5,2067.875 M20.5,2048.875 L46.5,2048.875 M33.5,2067.875 L20.5,2082.875 M33.5,2067.875 L46.5,2082.875 " fill="none" style="stroke:#181818;stroke-width:0.5;"/><rect fill="#E2E2F0" height="30.2969" rx="2.5" ry="2.5" style="stroke:#181818;stroke-width:0.5;" width="123" x="123" y="53.8906"/><text fill="#000000" font-family="sans-serif" font-size="14" lengthAdjust="spacing" textLength="109" x="130" y="73.8857">Visor de mapas</text><rect fill="#E2E2F0" height="30.2969" rx="2.5" ry="2.5" style="stroke:#181818;stroke-width:0.5;" width="123" x="123" y="2008.0781"/><text fill="#000000" font-family="sans-serif" font-size="14" lengthAdjust="spacing" textLength="109" x="130" y="2028.0732">Visor de mapas</text><rect fill="#E2E2F0" height="62.8906" rx="2.5" ry="2.5" style="stroke:#181818;stroke-width:0.5;" width="134" x="256" y="21.2969"/><text fill="#000000" font-family="sans-serif" font-size="14" lengthAdjust="spacing" textLength="108" x="269" y="41.292">Authentication</text><text fill="#000000" font-family="sans-serif" font-size="14" lengthAdjust="spacing" textLength="81" x="282.5" y="57.5889">Entry Point</text><text fill="#000000" font-family="sans-serif" font-size="14" lengthAdjust="spacing" textLength="120" x="263" y="73.8857">(Spring Security)</text><rect fill="#E2E2F0" height="62.8906" rx="2.5" ry="2.5" style="stroke:#181818;stroke-width:0.5;" width="134" x="256" y="2008.0781"/><text fill="#000000" font-family="sans-serif" font-size="14" lengthAdjust="spacing" textLength="108" x="269" y="2028.0732">Authentication</text><text fill="#000000" font-family="sans-serif" font-size="14" lengthAdjust="spacing" textLength="81" x="282.5" y="2044.3701">Entry Point</text><text fill="#000000" font-family="sans-serif" font-size="14" lengthAdjust="spacing" textLength="120" x="263" y="2060.667">(Spring Security)</text><rect fill="#E2E2F0" height="46.5938" rx="2.5" ry="2.5" style="stroke:#181818;stroke-width:0.5;" width="112" x="414" y="37.5938"/><text fill="#000000" font-family="sans-serif" font-size="14" lengthAdjust="spacing" textLength="85" x="427.5" y="57.5889">Filtro token</text><text fill="#000000" font-family="sans-serif" font-size="14" lengthAdjust="spacing" textLength="98" x="421" y="73.8857">autenticación</text><rect fill="#E2E2F0" height="46.5938" rx="2.5" ry="2.5" style="stroke:#181818;stroke-width:0.5;" width="112" x="414" y="2008.0781"/><text fill="#000000" font-family="sans-serif" font-size="14" lengthAdjust="spacing" textLength="85" x="427.5" y="2028.0732">Filtro token</text><text fill="#000000" font-family="sans-serif" font-size="14" lengthAdjust="spacing" textLength="98" x="421" y="2044.3701">autenticación</text><rect fill="#E2E2F0" height="62.8906" rx="2.5" ry="2.5" style="stroke:#181818;stroke-width:0.5;" width="148" x="536" y="21.2969"/><text fill="#000000" font-family="sans-serif" font-size="14" font-style="italic" lengthAdjust="spacing" textLength="134" x="543" y="41.292">«@RestController»</text><text fill="#000000" font-family="sans-serif" font-size="14" lengthAdjust="spacing" textLength="45" x="587.5" y="57.5889">API de</text><text fill="#000000" font-family="sans-serif" font-size="14" lengthAdjust="spacing" textLength="98" x="561" y="73.8857">autenticación</text><rect fill="#E2E2F0" height="62.8906" rx="2.5" ry="2.5" style="stroke:#181818;stroke-width:0.5;" width="148" x="536" y="2008.0781"/><text fill="#000000" font-family="sans-serif" font-size="14" font-style="italic" lengthAdjust="spacing" textLength="134" x="543" y="2028.0732">«@RestController»</text><text fill="#000000" font-family="sans-serif" font-size="14" lengthAdjust="spacing" textLength="45" x="587.5" y="2044.3701">API de</text><text fill="#000000" font-family="sans-serif" font-size="14" lengthAdjust="spacing" textLength="98" x="561" y="2060.667">autenticación</text><rect fill="#E2E2F0" height="79.1875" rx="2.5" ry="2.5" style="stroke:#181818;stroke-width:0.5;" width="148" x="694" y="5"/><text fill="#000000" font-family="sans-serif" font-size="14" font-style="italic" lengthAdjust="spacing" textLength="134" x="701" y="24.9951">«@RestController»</text><text fill="#000000" font-family="sans-serif" font-size="14" lengthAdjust="spacing" textLength="45" x="745.5" y="41.292">API de</text><text fill="#000000" font-family="sans-serif" font-size="14" lengthAdjust="spacing" textLength="97" x="719.5" y="57.5889">configuración</text><text fill="#000000" font-family="sans-serif" font-size="14" lengthAdjust="spacing" textLength="100" x="718" y="73.8857">y autorización</text><rect fill="#E2E2F0" height="79.1875" rx="2.5" ry="2.5" style="stroke:#181818;stroke-width:0.5;" width="148" x="694" y="2008.0781"/><text fill="#000000" font-family="sans-serif" font-size="14" font-style="italic" lengthAdjust="spacing" textLength="134" x="701" y="2028.0732">«@RestController»</text><text fill="#000000" font-family="sans-serif" font-size="14" lengthAdjust="spacing" textLength="45" x="745.5" y="2044.3701">API de</text><text fill="#000000" font-family="sans-serif" font-size="14" lengthAdjust="spacing" textLength="97" x="719.5" y="2060.667">configuración</text><text fill="#000000" font-family="sans-serif" font-size="14" lengthAdjust="spacing" textLength="100" x="718" y="2076.9639">y autorización</text><rect fill="#E2E2F0" height="46.5938" rx="2.5" ry="2.5" style="stroke:#181818;stroke-width:0.5;" width="84" x="968" y="37.5938"/><text fill="#000000" font-family="sans-serif" font-size="14" lengthAdjust="spacing" textLength="70" x="975" y="57.5889">Utilidades</text><text fill="#000000" font-family="sans-serif" font-size="14" lengthAdjust="spacing" textLength="27" x="996.5" y="73.8857">JWT</text><rect fill="#E2E2F0" height="46.5938" rx="2.5" ry="2.5" style="stroke:#181818;stroke-width:0.5;" width="84" x="968" y="2008.0781"/><text fill="#000000" font-family="sans-serif" font-size="14" lengthAdjust="spacing" textLength="70" x="975" y="2028.0732">Utilidades</text><text fill="#000000" font-family="sans-serif" font-size="14" lengthAdjust="spacing" textLength="27" x="996.5" y="2044.3701">JWT</text><rect fill="#E2E2F0" height="62.8906" rx="2.5" ry="2.5" style="stroke:#181818;stroke-width:0.5;" width="134" x="1062" y="21.2969"/><text fill="#000000" font-family="sans-serif" font-size="14" lengthAdjust="spacing" textLength="108" x="1075" y="41.292">Authentication</text><text fill="#000000" font-family="sans-serif" font-size="14" lengthAdjust="spacing" textLength="61" x="1098.5" y="57.5889">Manager</text><text fill="#000000" font-family="sans-serif" font-size="14" lengthAdjust="spacing" textLength="120" x="1069" y="73.8857">(Spring Security)</text><rect fill="#E2E2F0" height="62.8906" rx="2.5" ry="2.5" style="stroke:#181818;stroke-width:0.5;" width="134" x="1062" y="2008.0781"/><text fill="#000000" font-family="sans-serif" font-size="14" lengthAdjust="spacing" textLength="108" x="1075" y="2028.0732">Authentication</text><text fill="#000000" font-family="sans-serif" font-size="14" lengthAdjust="spacing" textLength="61" x="1098.5" y="2044.3701">Manager</text><text fill="#000000" font-family="sans-serif" font-size="14" lengthAdjust="spacing" textLength="120" x="1069" y="2060.667">(Spring Security)</text><rect fill="#E2E2F0" height="46.5938" rx="2.5" ry="2.5" style="stroke:#181818;stroke-width:0.5;" width="136" x="1206" y="37.5938"/><text fill="#000000" font-family="sans-serif" font-size="14" lengthAdjust="spacing" textLength="122" x="1213" y="57.5889">Security Context</text><text fill="#000000" font-family="sans-serif" font-size="14" lengthAdjust="spacing" textLength="120" x="1214" y="73.8857">(Spring Security)</text><rect fill="#E2E2F0" height="46.5938" rx="2.5" ry="2.5" style="stroke:#181818;stroke-width:0.5;" width="136" x="1206" y="2008.0781"/><text fill="#000000" font-family="sans-serif" font-size="14" lengthAdjust="spacing" textLength="122" x="1213" y="2028.0732">Security Context</text><text fill="#000000" font-family="sans-serif" font-size="14" lengthAdjust="spacing" textLength="120" x="1214" y="2044.3701">(Spring Security)</text><text fill="#000000" font-family="sans-serif" font-size="14" lengthAdjust="spacing" textLength="78" x="1352" y="81.8857">BD SITMUN</text><path d="M1376,32.8906 C1376,22.8906 1394,22.8906 1394,22.8906 C1394,22.8906 1412,22.8906 1412,32.8906 L1412,58.8906 C1412,68.8906 1394,68.8906 1394,68.8906 C1394,68.8906 1376,68.8906 1376,58.8906 L1376,32.8906 " fill="#E2E2F0" style="stroke:#181818;stroke-width:1.5;"/><path d="M1376,32.8906 C1376,42.8906 1394,42.8906 1394,42.8906 C1394,42.8906 1412,42.8906 1412,32.8906 " fill="none" style="stroke:#181818;stroke-width:1.5;"/><text fill="#000000" font-family="sans-serif" font-size="14" lengthAdjust="spacing" textLength="78" x="1352" y="2021.0732">BD SITMUN</text><path d="M1376,2034.375 C1376,2024.375 1394,2024.375 1394,2024.375 C1394,2024.375 1412,2024.375 1412,2034.375 L1412,2060.375 C1412,2070.375 1394,2070.375 1394,2070.375 C1394,2070.375 1376,2070.375 1376,2060.375 L1376,2034.375 " fill="#E2E2F0" style="stroke:#181818;stroke-width:1.5;"/><path d="M1376,2034.375 C1376,2044.375 1394,2044.375 1394,2044.375 C1394,2044.375 1412,2044.375 1412,2034.375 " fill="none" style="stroke:#181818;stroke-width:1.5;"/><line style="stroke:#181818;stroke-width:1.0;" x1="182.5" x2="172.5" y1="116.3203" y2="112.3203"/><line style="stroke:#181818;stroke-width:1.0;" x1="182.5" x2="172.5" y1="116.3203" y2="120.3203"/><line style="stroke:#181818;stroke-width:1.0;" x1="33.5" x2="183.5" y1="116.3203" y2="116.3203"/><text fill="#000000" font-family="sans-serif" font-size="13" lengthAdjust="spacing" textLength="34" x="40.5" y="111.2544">Login</text><polygon fill="#181818" points="598,174.7188,608,178.7188,598,182.7188,602,178.7188" style="stroke:#181818;stroke-width:1.0;"/><line style="stroke:#181818;stroke-width:1.0;" x1="184.5" x2="604" y1="178.7188" y2="178.7188"/><text fill="#000000" font-family="sans-serif" font-size="13" lengthAdjust="spacing" textLength="34" x="191.5" y="173.6528">Login</text><path d="M615,129.3203 L615,214.3203 L819,214.3203 L819,139.3203 L809,129.3203 L615,129.3203 " fill="#FEFFDD" style="stroke:#181818;stroke-width:0.5;"/><path d="M809,129.3203 L809,139.3203 L819,139.3203 L809,129.3203 " fill="#FEFFDD" style="stroke:#181818;stroke-width:0.5;"/><text fill="#000000" font-family="sans-serif" font-size="13" lengthAdjust="spacing" textLength="146" x="621" y="146.3872">POST /api/authenticate</text><text fill="#000000" font-family="sans-serif" font-size="13" lengthAdjust="spacing" textLength="9" x="621" y="161.52">{</text><text fill="#000000" font-family="sans-serif" font-size="13" lengthAdjust="spacing" textLength="175" x="629" y="176.6528">&quot;username&quot; : {username},</text><text fill="#000000" font-family="sans-serif" font-size="13" lengthAdjust="spacing" textLength="165" x="629" y="191.7856">&quot;password&quot; : {password}</text><text fill="#000000" font-family="sans-serif" font-size="13" lengthAdjust="spacing" textLength="9" x="621" y="206.9185">}</text><polygon fill="#181818" points="334,221.9844,324,225.9844,334,229.9844,330,225.9844" style="stroke:#181818;stroke-width:1.0;"/><line style="stroke:#181818;stroke-width:1.0;" x1="328" x2="609" y1="225.9844" y2="225.9844"/><polygon fill="#181818" points="598,251.1172,608,255.1172,598,259.1172,602,255.1172" style="stroke:#181818;stroke-width:1.0;"/><line style="stroke:#181818;stroke-width:1.0;" x1="323" x2="604" y1="255.1172" y2="255.1172"/><text fill="#000000" font-family="sans-serif" font-size="13" lengthAdjust="spacing" textLength="161" x="330" y="250.0513">Login(usuario, password)</text><polygon fill="#181818" points="1117,280.25,1127,284.25,1117,288.25,1121,284.25" style="stroke:#181818;stroke-width:1.0;"/><line style="stroke:#181818;stroke-width:1.0;" x1="610" x2="1123" y1="284.25" y2="284.25"/><text fill="#000000" font-family="sans-serif" font-size="13" lengthAdjust="spacing" textLength="143" x="617" y="279.1841">Obtener Autenticación</text><polygon fill="#181818" points="1382,309.3828,1392,313.3828,1382,317.3828,1386,313.3828" style="stroke:#181818;stroke-width:1.0;"/><line style="stroke:#181818;stroke-width:1.0;" x1="1129" x2="1388" y1="313.3828" y2="313.3828"/><text fill="#000000" font-family="sans-serif" font-size="13" lengthAdjust="spacing" textLength="118" x="1136" y="308.3169">¿Existe y pwd OK?</text><line style="stroke:#181818;stroke-width:1.0;" x1="1130" x2="1140" y1="342.5156" y2="338.5156"/><line style="stroke:#181818;stroke-width:1.0;" x1="1130" x2="1140" y1="342.5156" y2="346.5156"/><line style="stroke:#181818;stroke-width:1.0;stroke-dasharray:2.0,2.0;" x1="1129" x2="1393" y1="342.5156" y2="342.5156"/><text fill="#000000" font-family="sans-serif" font-size="13" lengthAdjust="spacing" textLength="11" x="1146" y="337.4497">Sí</text><line style="stroke:#181818;stroke-width:1.0;" x1="611" x2="621" y1="371.6484" y2="367.6484"/><line style="stroke:#181818;stroke-width:1.0;" x1="611" x2="621" y1="371.6484" y2="375.6484"/><line style="stroke:#181818;stroke-width:1.0;stroke-dasharray:2.0,2.0;" x1="610" x2="1128" y1="371.6484" y2="371.6484"/><text fill="#000000" font-family="sans-serif" font-size="13" lengthAdjust="spacing" textLength="144" x="627" y="366.5825">Autenticación(usuario)</text><polygon fill="#181818" points="1262,396.7813,1272,400.7813,1262,404.7813,1266,400.7813" style="stroke:#181818;stroke-width:1.0;"/><line style="stroke:#181818;stroke-width:1.0;" x1="610" x2="1268" y1="400.7813" y2="400.7813"/><text fill="#000000" font-family="sans-serif" font-size="13" lengthAdjust="spacing" textLength="117" x="617" y="395.7153">set(Autenticación)</text><line style="stroke:#181818;stroke-width:1.0;" x1="611" x2="621" y1="414.7813" y2="410.7813"/><line style="stroke:#181818;stroke-width:1.0;" x1="611" x2="621" y1="414.7813" y2="418.7813"/><line style="stroke:#181818;stroke-width:1.0;stroke-dasharray:2.0,2.0;" x1="610" x2="1273" y1="414.7813" y2="414.7813"/><polygon fill="#181818" points="998,439.9141,1008,443.9141,998,447.9141,1002,443.9141" style="stroke:#181818;stroke-width:1.0;"/><line style="stroke:#181818;stroke-width:1.0;" x1="610" x2="1004" y1="443.9141" y2="443.9141"/><text fill="#000000" font-family="sans-serif" font-size="13" lengthAdjust="spacing" textLength="181" x="617" y="438.8481">Generar Token JWT(usuario)</text><line style="stroke:#181818;stroke-width:1.0;" x1="611" x2="621" y1="473.0469" y2="469.0469"/><line style="stroke:#181818;stroke-width:1.0;" x1="611" x2="621" y1="473.0469" y2="477.0469"/><line style="stroke:#181818;stroke-width:1.0;stroke-dasharray:2.0,2.0;" x1="610" x2="1009" y1="473.0469" y2="473.0469"/><text fill="#000000" font-family="sans-serif" font-size="13" lengthAdjust="spacing" textLength="68" x="627" y="467.981">Token JWT</text><line style="stroke:#181818;stroke-width:1.0;" x1="324" x2="334" y1="502.1797" y2="498.1797"/><line style="stroke:#181818;stroke-width:1.0;" x1="324" x2="334" y1="502.1797" y2="506.1797"/><line style="stroke:#181818;stroke-width:1.0;stroke-dasharray:2.0,2.0;" x1="323" x2="609" y1="502.1797" y2="502.1797"/><text fill="#000000" font-family="sans-serif" font-size="13" lengthAdjust="spacing" textLength="68" x="340" y="497.1138">Token JWT</text><line style="stroke:#181818;stroke-width:1.0;" x1="608" x2="598" y1="531.3125" y2="527.3125"/><line style="stroke:#181818;stroke-width:1.0;" x1="608" x2="598" y1="531.3125" y2="535.3125"/><line style="stroke:#181818;stroke-width:1.0;stroke-dasharray:2.0,2.0;" x1="323" x2="609" y1="531.3125" y2="531.3125"/><text fill="#000000" font-family="sans-serif" font-size="13" lengthAdjust="spacing" textLength="68" x="330" y="526.2466">Token JWT</text><line style="stroke:#181818;stroke-width:1.0;" x1="185.5" x2="195.5" y1="593.7109" y2="589.7109"/><line style="stroke:#181818;stroke-width:1.0;" x1="185.5" x2="195.5" y1="593.7109" y2="597.7109"/><line style="stroke:#181818;stroke-width:1.0;stroke-dasharray:2.0,2.0;" x1="184.5" x2="609" y1="593.7109" y2="593.7109"/><text fill="#000000" font-family="sans-serif" font-size="13" lengthAdjust="spacing" textLength="68" x="201.5" y="588.645">Token JWT</text><path d="M615,544.3125 L615,629.3125 L855,629.3125 L855,554.3125 L845,544.3125 L615,544.3125 " fill="#FEFFDD" style="stroke:#181818;stroke-width:0.5;"/><path d="M845,544.3125 L845,554.3125 L855,554.3125 L845,544.3125 " fill="#FEFFDD" style="stroke:#181818;stroke-width:0.5;"/><text fill="#000000" font-family="sans-serif" font-size="13" lengthAdjust="spacing" textLength="45" x="621" y="561.3794">200 Ok</text><text fill="#000000" font-family="sans-serif" font-size="13" lengthAdjust="spacing" textLength="219" x="621" y="576.5122">Authorization: Bearer {tokenJWT}</text><text fill="#000000" font-family="sans-serif" font-size="13" lengthAdjust="spacing" textLength="9" x="621" y="591.645">{</text><text fill="#000000" font-family="sans-serif" font-size="13" lengthAdjust="spacing" textLength="158" x="637" y="606.7778">&quot;idToken&quot;: &quot;{tokenJWT}&quot;</text><text fill="#000000" font-family="sans-serif" font-size="13" lengthAdjust="spacing" textLength="9" x="621" y="621.9106">}</text><polygon fill="#181818" points="756,692.9414,766,696.9414,756,700.9414,760,696.9414" style="stroke:#181818;stroke-width:1.0;"/><line style="stroke:#181818;stroke-width:1.0;" x1="184.5" x2="762" y1="696.9414" y2="696.9414"/><text fill="#000000" font-family="sans-serif" font-size="13" lengthAdjust="spacing" textLength="142" x="191.5" y="691.8755">Obtener configuración</text><path d="M773,639.9766 L773,739.9766 L1013,739.9766 L1013,649.9766 L1003,639.9766 L773,639.9766 " fill="#FEFFDD" style="stroke:#181818;stroke-width:0.5;"/><path d="M1003,639.9766 L1003,649.9766 L1013,649.9766 L1003,639.9766 " fill="#FEFFDD" style="stroke:#181818;stroke-width:0.5;"/><text fill="#000000" font-family="sans-serif" font-size="13" lengthAdjust="spacing" textLength="136" x="779" y="657.0435">POST /api/config/user</text><text fill="#000000" font-family="sans-serif" font-size="13" lengthAdjust="spacing" textLength="219" x="779" y="672.1763">Authorization: Bearer {tokenJWT}</text><text fill="#000000" font-family="sans-serif" font-size="13" lengthAdjust="spacing" textLength="9" x="779" y="687.3091">{</text><text fill="#000000" font-family="sans-serif" font-size="13" lengthAdjust="spacing" textLength="115" x="787" y="702.4419">&quot;appId&quot; : {appId},</text><text fill="#000000" font-family="sans-serif" font-size="13" lengthAdjust="spacing" textLength="109" x="787" y="717.5747">&quot;terrId&quot; : {terrId}</text><text fill="#000000" font-family="sans-serif" font-size="13" lengthAdjust="spacing" textLength="9" x="779" y="732.7075">}</text><polygon fill="#181818" points="334,747.7734,324,751.7734,334,755.7734,330,751.7734" style="stroke:#181818;stroke-width:1.0;"/><line style="stroke:#181818;stroke-width:1.0;" x1="328" x2="767" y1="751.7734" y2="751.7734"/><polygon fill="#181818" points="458,776.9063,468,780.9063,458,784.9063,462,780.9063" style="stroke:#181818;stroke-width:1.0;"/><line style="stroke:#181818;stroke-width:1.0;" x1="323" x2="464" y1="780.9063" y2="780.9063"/><text fill="#000000" font-family="sans-serif" font-size="13" lengthAdjust="spacing" textLength="85" x="330" y="775.8403">Filtra petición</text><polygon fill="#181818" points="998,806.0391,1008,810.0391,998,814.0391,1002,810.0391" style="stroke:#181818;stroke-width:1.0;"/><line style="stroke:#181818;stroke-width:1.0;" x1="470" x2="1004" y1="810.0391" y2="810.0391"/><text fill="#000000" font-family="sans-serif" font-size="13" lengthAdjust="spacing" textLength="113" x="477" y="804.9731">Validar token JWT</text><line style="stroke:#181818;stroke-width:1.0;" x1="471" x2="481" y1="839.1719" y2="835.1719"/><line style="stroke:#181818;stroke-width:1.0;" x1="471" x2="481" y1="839.1719" y2="843.1719"/><line style="stroke:#181818;stroke-width:1.0;stroke-dasharray:2.0,2.0;" x1="470" x2="1009" y1="839.1719" y2="839.1719"/><text fill="#000000" font-family="sans-serif" font-size="13" lengthAdjust="spacing" textLength="61" x="487" y="834.106">Token OK</text><polygon fill="#181818" points="998,864.3047,1008,868.3047,998,872.3047,1002,868.3047" style="stroke:#181818;stroke-width:1.0;"/><line style="stroke:#181818;stroke-width:1.0;" x1="470" x2="1004" y1="868.3047" y2="868.3047"/><text fill="#000000" font-family="sans-serif" font-size="13" lengthAdjust="spacing" textLength="190" x="477" y="863.2388">Extraer usuario del token JWT</text><line style="stroke:#181818;stroke-width:1.0;" x1="471" x2="481" y1="897.4375" y2="893.4375"/><line style="stroke:#181818;stroke-width:1.0;" x1="471" x2="481" y1="897.4375" y2="901.4375"/><line style="stroke:#181818;stroke-width:1.0;stroke-dasharray:2.0,2.0;" x1="470" x2="1009" y1="897.4375" y2="897.4375"/><text fill="#000000" font-family="sans-serif" font-size="13" lengthAdjust="spacing" textLength="47" x="487" y="892.3716">usuario</text><polygon fill="#181818" points="1382,922.5703,1392,926.5703,1382,930.5703,1386,926.5703" style="stroke:#181818;stroke-width:1.0;"/><line style="stroke:#181818;stroke-width:1.0;" x1="470" x2="1388" y1="926.5703" y2="926.5703"/><text fill="#000000" font-family="sans-serif" font-size="13" lengthAdjust="spacing" textLength="117" x="477" y="921.5044">¿Detalles usuario?</text><line style="stroke:#181818;stroke-width:1.0;" x1="471" x2="481" y1="966.2695" y2="962.2695"/><line style="stroke:#181818;stroke-width:1.0;" x1="471" x2="481" y1="966.2695" y2="970.2695"/><line style="stroke:#181818;stroke-width:1.0;stroke-dasharray:2.0,2.0;" x1="470" x2="1393" y1="966.2695" y2="966.2695"/><text fill="#000000" font-family="sans-serif" font-size="13" lengthAdjust="spacing" textLength="31" x="487" y="961.2036">roles</text><path d="M1399,939.5703 L1399,979.5703 L1660,979.5703 L1660,949.5703 L1650,939.5703 L1399,939.5703 " fill="#FEFFDD" style="stroke:#181818;stroke-width:0.5;"/><path d="M1650,939.5703 L1650,949.5703 L1660,949.5703 L1650,939.5703 " fill="#FEFFDD" style="stroke:#181818;stroke-width:0.5;"/><text fill="#000000" font-family="sans-serif" font-size="13" lengthAdjust="spacing" textLength="236" x="1405" y="956.6372">Si no se encuentra 401 Unauthorized</text><text fill="#000000" font-family="sans-serif" font-size="13" lengthAdjust="spacing" textLength="240" x="1405" y="971.77">Los roles pueden ser USER y/o ADMIN</text><polygon fill="#181818" points="1262,1001.9688,1272,1005.9688,1262,1009.9688,1266,1005.9688" style="stroke:#181818;stroke-width:1.0;"/><line style="stroke:#181818;stroke-width:1.0;" x1="470" x2="1268" y1="1005.9688" y2="1005.9688"/><text fill="#000000" font-family="sans-serif" font-size="13" lengthAdjust="spacing" textLength="213" x="477" y="1000.9028">set(Autenticación(usuario, roles))</text><line style="stroke:#181818;stroke-width:1.0;" x1="471" x2="481" y1="1019.9688" y2="1015.9688"/><line style="stroke:#181818;stroke-width:1.0;" x1="471" x2="481" y1="1019.9688" y2="1023.9688"/><line style="stroke:#181818;stroke-width:1.0;stroke-dasharray:2.0,2.0;" x1="470" x2="1273" y1="1019.9688" y2="1019.9688"/><line style="stroke:#181818;stroke-width:1.0;" x1="324" x2="334" y1="1033.9688" y2="1029.9688"/><line style="stroke:#181818;stroke-width:1.0;" x1="324" x2="334" y1="1033.9688" y2="1037.9688"/><line style="stroke:#181818;stroke-width:1.0;stroke-dasharray:2.0,2.0;" x1="323" x2="469" y1="1033.9688" y2="1033.9688"/><polygon fill="#181818" points="1262,1059.1016,1272,1063.1016,1262,1067.1016,1266,1063.1016" style="stroke:#181818;stroke-width:1.0;"/><line style="stroke:#181818;stroke-width:1.0;" x1="323" x2="1268" y1="1063.1016" y2="1063.1016"/><text fill="#000000" font-family="sans-serif" font-size="13" lengthAdjust="spacing" textLength="131" x="330" y="1058.0356">contexto seguridad?</text><line style="stroke:#181818;stroke-width:1.0;" x1="324" x2="334" y1="1092.2344" y2="1088.2344"/><line style="stroke:#181818;stroke-width:1.0;" x1="324" x2="334" y1="1092.2344" y2="1096.2344"/><line style="stroke:#181818;stroke-width:1.0;stroke-dasharray:2.0,2.0;" x1="323" x2="1273" y1="1092.2344" y2="1092.2344"/><text fill="#000000" font-family="sans-serif" font-size="13" lengthAdjust="spacing" textLength="100" x="340" y="1087.1685">contexto actual</text><line style="stroke:#181818;stroke-width:1.0;" x1="323" x2="365" y1="1148.1328" y2="1148.1328"/><line style="stroke:#181818;stroke-width:1.0;" x1="365" x2="365" y1="1148.1328" y2="1161.1328"/><line style="stroke:#181818;stroke-width:1.0;" x1="324" x2="365" y1="1161.1328" y2="1161.1328"/><polygon fill="#181818" points="334,1157.1328,324,1161.1328,334,1165.1328,330,1161.1328" style="stroke:#181818;stroke-width:1.0;"/><text fill="#000000" font-family="sans-serif" font-size="13" lengthAdjust="spacing" textLength="113" x="330" y="1127.9341">verificar contexto</text><text fill="#000000" font-family="sans-serif" font-size="13" lengthAdjust="spacing" textLength="133" x="330" y="1143.0669">actual tiene rol USER</text><path d="M475,1105.2344 L475,1175.2344 L751,1175.2344 L751,1115.2344 L741,1105.2344 L475,1105.2344 " fill="#FEFFDD" style="stroke:#181818;stroke-width:0.5;"/><path d="M741,1105.2344 L741,1115.2344 L751,1115.2344 L741,1105.2344 " fill="#FEFFDD" style="stroke:#181818;stroke-width:0.5;"/><text fill="#000000" font-family="sans-serif" font-size="13" lengthAdjust="spacing" textLength="235" x="481" y="1122.3013">método asociado a &quot;/api/config/user&quot;</text><text fill="#000000" font-family="sans-serif" font-size="13" lengthAdjust="spacing" textLength="255" x="481" y="1137.4341">solo puede ser accedido con el rol USER</text><text fill="#000000" font-family="sans-serif" font-size="13" lengthAdjust="spacing" textLength="213" x="481" y="1152.5669">por la configuración de seguridad</text><text fill="#000000" font-family="sans-serif" font-size="13" lengthAdjust="spacing" textLength="218" x="481" y="1167.6997">Si no se verifica 401 Unauthorized</text><polygon fill="#181818" points="756,1216.0313,766,1220.0313,756,1224.0313,760,1220.0313" style="stroke:#181818;stroke-width:1.0;"/><line style="stroke:#181818;stroke-width:1.0;" x1="323" x2="762" y1="1220.0313" y2="1220.0313"/><text fill="#000000" font-family="sans-serif" font-size="13" lengthAdjust="spacing" textLength="314" x="330" y="1214.9653">getUserConfiguration(UserConfigurationRequest)</text><path d="M773,1185.7656 L773,1240.7656 L1160,1240.7656 L1160,1195.7656 L1150,1185.7656 L773,1185.7656 " fill="#FEFFDD" style="stroke:#181818;stroke-width:0.5;"/><path d="M1150,1185.7656 L1150,1195.7656 L1160,1195.7656 L1150,1185.7656 " fill="#FEFFDD" style="stroke:#181818;stroke-width:0.5;"/><text fill="#000000" font-family="sans-serif" font-size="13" lengthAdjust="spacing" textLength="366" x="779" y="1202.8325">UserConfigurationRequest es un objeto con propiedades:</text><text fill="#000000" font-family="sans-serif" font-size="13" lengthAdjust="spacing" textLength="77" x="779" y="1217.9653">appId, terrId</text><text fill="#000000" font-family="sans-serif" font-size="13" lengthAdjust="spacing" textLength="144" x="779" y="1233.0981">Ambos son opcionales</text><polygon fill="#181818" points="998,1263.2969,1008,1267.2969,998,1271.2969,1002,1267.2969" style="stroke:#181818;stroke-width:1.0;"/><line style="stroke:#181818;stroke-width:1.0;" x1="768" x2="1004" y1="1267.2969" y2="1267.2969"/><text fill="#000000" font-family="sans-serif" font-size="13" lengthAdjust="spacing" textLength="113" x="775" y="1262.231">Validar token JWT</text><line style="stroke:#181818;stroke-width:1.0;" x1="769" x2="779" y1="1296.4297" y2="1292.4297"/><line style="stroke:#181818;stroke-width:1.0;" x1="769" x2="779" y1="1296.4297" y2="1300.4297"/><line style="stroke:#181818;stroke-width:1.0;stroke-dasharray:2.0,2.0;" x1="768" x2="1009" y1="1296.4297" y2="1296.4297"/><text fill="#000000" font-family="sans-serif" font-size="13" lengthAdjust="spacing" textLength="61" x="785" y="1291.3638">Token OK</text><polygon fill="#181818" points="998,1321.5625,1008,1325.5625,998,1329.5625,1002,1325.5625" style="stroke:#181818;stroke-width:1.0;"/><line style="stroke:#181818;stroke-width:1.0;" x1="768" x2="1004" y1="1325.5625" y2="1325.5625"/><text fill="#000000" font-family="sans-serif" font-size="13" lengthAdjust="spacing" textLength="218" x="775" y="1320.4966">Extraer &quot;username&quot; del token JWT</text><line style="stroke:#181818;stroke-width:1.0;" x1="769" x2="779" y1="1354.6953" y2="1350.6953"/><line style="stroke:#181818;stroke-width:1.0;" x1="769" x2="779" y1="1354.6953" y2="1358.6953"/><line style="stroke:#181818;stroke-width:1.0;stroke-dasharray:2.0,2.0;" x1="768" x2="1009" y1="1354.6953" y2="1354.6953"/><text fill="#000000" font-family="sans-serif" font-size="13" lengthAdjust="spacing" textLength="75" x="785" y="1349.6294">&quot;username&quot;</text><polygon fill="#181818" points="1382,1519.0234,1392,1523.0234,1382,1527.0234,1386,1523.0234" style="stroke:#181818;stroke-width:1.0;"/><line style="stroke:#181818;stroke-width:1.0;" x1="768" x2="1388" y1="1523.0234" y2="1523.0234"/><text fill="#000000" font-family="sans-serif" font-size="13" lengthAdjust="spacing" textLength="199" x="775" y="1502.8247">Recuperar configuración según</text><text fill="#000000" font-family="sans-serif" font-size="13" lengthAdjust="spacing" textLength="149" x="775" y="1517.9575">qué hay que configurar</text><path d="M1399,1367.6953 L1399,1649.6953 L1811,1649.6953 L1811,1377.6953 L1801,1367.6953 L1399,1367.6953 " fill="#FEFFDD" style="stroke:#181818;stroke-width:0.5;"/><path d="M1801,1367.6953 L1801,1377.6953 L1811,1377.6953 L1801,1367.6953 " fill="#FEFFDD" style="stroke:#181818;stroke-width:0.5;"/><text fill="#000000" font-family="sans-serif" font-size="13" lengthAdjust="spacing" textLength="179" x="1405" y="1384.7622">buscamos información para</text><text fill="#000000" font-family="sans-serif" font-size="13" lengthAdjust="spacing" textLength="112" x="1405" y="1399.895">User = username</text><text fill="#000000" font-family="sans-serif" font-size="13" lengthAdjust="spacing" textLength="278" x="1405" y="1415.0278">Territory = userConfigurationRequest.terrId</text><text fill="#000000" font-family="sans-serif" font-size="13" lengthAdjust="spacing" textLength="294" x="1405" y="1430.1606">Application = userConfigurationRequest.appId</text><text fill="#000000" font-family="sans-serif" font-size="13" lengthAdjust="spacing" textLength="4" x="1405" y="1445.2935"> </text><text fill="#000000" font-family="sans-serif" font-size="13" lengthAdjust="spacing" textLength="352" x="1405" y="1460.4263">Si no hay territorio, estamos configurando la aplicación</text><text fill="#000000" font-family="sans-serif" font-size="13" lengthAdjust="spacing" textLength="255" x="1405" y="1475.5591">para que pueda seleccionar el territorio.</text><text fill="#000000" font-family="sans-serif" font-size="13" lengthAdjust="spacing" textLength="309" x="1405" y="1490.6919">No hay acceso a información de tareas o capas.</text><text fill="#000000" font-family="sans-serif" font-size="13" lengthAdjust="spacing" textLength="4" x="1405" y="1505.8247"> </text><text fill="#000000" font-family="sans-serif" font-size="13" lengthAdjust="spacing" textLength="391" x="1405" y="1520.9575">Si no hay aplicación, nos está pidiendo todas las aplicaciones</text><text fill="#000000" font-family="sans-serif" font-size="13" lengthAdjust="spacing" textLength="164" x="1405" y="1536.0903">para el territorio indicado.</text><text fill="#000000" font-family="sans-serif" font-size="13" lengthAdjust="spacing" textLength="309" x="1405" y="1551.2231">No hay acceso a información de tareas o capas.</text><text fill="#000000" font-family="sans-serif" font-size="13" lengthAdjust="spacing" textLength="4" x="1405" y="1566.356"> </text><text fill="#000000" font-family="sans-serif" font-size="13" lengthAdjust="spacing" textLength="4" x="1405" y="1581.4888"> </text><text fill="#000000" font-family="sans-serif" font-size="13" lengthAdjust="spacing" textLength="354" x="1405" y="1596.6216">Si no hay territorio y ni aplicación, nos pide saber todas</text><text fill="#000000" font-family="sans-serif" font-size="13" lengthAdjust="spacing" textLength="314" x="1405" y="1611.7544">las aplicaciones y territorios que puede combinar</text><text fill="#000000" font-family="sans-serif" font-size="13" lengthAdjust="spacing" textLength="309" x="1405" y="1626.8872">No hay acceso a información de tareas o capas.</text><text fill="#000000" font-family="sans-serif" font-size="13" lengthAdjust="spacing" textLength="4" x="1405" y="1642.02"> </text><line style="stroke:#181818;stroke-width:1.0;" x1="769" x2="779" y1="1706.4844" y2="1702.4844"/><line style="stroke:#181818;stroke-width:1.0;" x1="769" x2="779" y1="1706.4844" y2="1710.4844"/><line style="stroke:#181818;stroke-width:1.0;stroke-dasharray:2.0,2.0;" x1="768" x2="1393" y1="1706.4844" y2="1706.4844"/><text fill="#000000" font-family="sans-serif" font-size="13" lengthAdjust="spacing" textLength="88" x="785" y="1671.1528">Configuración</text><text fill="#000000" font-family="sans-serif" font-size="13" lengthAdjust="spacing" textLength="18" x="785" y="1686.2856">sin</text><text fill="#000000" font-family="sans-serif" font-size="13" lengthAdjust="spacing" textLength="42" x="785" y="1701.4185">refinar</text><line style="stroke:#181818;stroke-width:1.0;" x1="768" x2="810" y1="1754.8164" y2="1754.8164"/><line style="stroke:#181818;stroke-width:1.0;" x1="810" x2="810" y1="1754.8164" y2="1767.8164"/><line style="stroke:#181818;stroke-width:1.0;" x1="769" x2="810" y1="1767.8164" y2="1767.8164"/><polygon fill="#181818" points="779,1763.8164,769,1767.8164,779,1771.8164,775,1767.8164" style="stroke:#181818;stroke-width:1.0;"/><text fill="#000000" font-family="sans-serif" font-size="13" lengthAdjust="spacing" textLength="46" x="775" y="1734.6177">Refinar</text><text fill="#000000" font-family="sans-serif" font-size="13" lengthAdjust="spacing" textLength="86" x="775" y="1749.7505">configuración</text><path d="M873,1719.4844 L873,1774.4844 L1230,1774.4844 L1230,1729.4844 L1220,1719.4844 L873,1719.4844 " fill="#FEFFDD" style="stroke:#181818;stroke-width:0.5;"/><path d="M1220,1719.4844 L1220,1729.4844 L1230,1729.4844 L1220,1719.4844 " fill="#FEFFDD" style="stroke:#181818;stroke-width:0.5;"/><text fill="#000000" font-family="sans-serif" font-size="13" lengthAdjust="spacing" textLength="314" x="879" y="1736.5513">Eliminar información que no pueda ver el usuario</text><text fill="#000000" font-family="sans-serif" font-size="13" lengthAdjust="spacing" textLength="336" x="879" y="1751.6841">dadas sus restricciones para la aplicación y territorio</text><text fill="#000000" font-family="sans-serif" font-size="13" lengthAdjust="spacing" textLength="165" x="879" y="1766.8169">y el resto de restricciones</text><line style="stroke:#181818;stroke-width:1.0;" x1="324" x2="334" y1="1816.1484" y2="1812.1484"/><line style="stroke:#181818;stroke-width:1.0;" x1="324" x2="334" y1="1816.1484" y2="1820.1484"/><line style="stroke:#181818;stroke-width:1.0;stroke-dasharray:2.0,2.0;" x1="323" x2="767" y1="1816.1484" y2="1816.1484"/><text fill="#000000" font-family="sans-serif" font-size="13" lengthAdjust="spacing" textLength="88" x="340" y="1795.9497">Configuración</text><text fill="#000000" font-family="sans-serif" font-size="13" lengthAdjust="spacing" textLength="88" x="340" y="1811.0825">pedida (JSON)</text><line style="stroke:#181818;stroke-width:1.0;" x1="608" x2="598" y1="1860.4141" y2="1856.4141"/><line style="stroke:#181818;stroke-width:1.0;" x1="608" x2="598" y1="1860.4141" y2="1864.4141"/><line style="stroke:#181818;stroke-width:1.0;stroke-dasharray:2.0,2.0;" x1="323" x2="609" y1="1860.4141" y2="1860.4141"/><text fill="#000000" font-family="sans-serif" font-size="13" lengthAdjust="spacing" textLength="88" x="330" y="1840.2153">Configuración</text><text fill="#000000" font-family="sans-serif" font-size="13" lengthAdjust="spacing" textLength="88" x="330" y="1855.3481">pedida (JSON)</text><line style="stroke:#181818;stroke-width:1.0;" x1="185.5" x2="195.5" y1="1904.6797" y2="1900.6797"/><line style="stroke:#181818;stroke-width:1.0;" x1="185.5" x2="195.5" y1="1904.6797" y2="1908.6797"/><line style="stroke:#181818;stroke-width:1.0;stroke-dasharray:2.0,2.0;" x1="184.5" x2="609" y1="1904.6797" y2="1904.6797"/><text fill="#000000" font-family="sans-serif" font-size="13" lengthAdjust="spacing" textLength="88" x="201.5" y="1884.481">Configuración</text><text fill="#000000" font-family="sans-serif" font-size="13" lengthAdjust="spacing" textLength="88" x="201.5" y="1899.6138">pedida (JSON)</text><line style="stroke:#181818;stroke-width:1.0;" x1="184.5" x2="226.5" y1="1948.9453" y2="1948.9453"/><line style="stroke:#181818;stroke-width:1.0;" x1="226.5" x2="226.5" y1="1948.9453" y2="1961.9453"/><line style="stroke:#181818;stroke-width:1.0;" x1="185.5" x2="226.5" y1="1961.9453" y2="1961.9453"/><polygon fill="#181818" points="195.5,1957.9453,185.5,1961.9453,195.5,1965.9453,191.5,1961.9453" style="stroke:#181818;stroke-width:1.0;"/><text fill="#000000" font-family="sans-serif" font-size="13" lengthAdjust="spacing" textLength="102" x="191.5" y="1928.7466">Configurar visor</text><text fill="#000000" font-family="sans-serif" font-size="13" lengthAdjust="spacing" textLength="86" x="191.5" y="1943.8794">(Config JSON)</text><line style="stroke:#181818;stroke-width:1.0;" x1="34.5" x2="44.5" y1="1991.0781" y2="1987.0781"/><line style="stroke:#181818;stroke-width:1.0;" x1="34.5" x2="44.5" y1="1991.0781" y2="1995.0781"/><line style="stroke:#181818;stroke-width:1.0;stroke-dasharray:2.0,2.0;" x1="33.5" x2="183.5" y1="1991.0781" y2="1991.0781"/><text fill="#000000" font-family="sans-serif" font-size="13" lengthAdjust="spacing" textLength="127" x="50.5" y="1986.0122">Visor listo para usar</text><!--SRC=[fLZDSjis4BxpANPqgJNZs6wd9qtgrB7LZfFOybXMUl458c453GKm09XOzVXXUioXfzvwwKprOjq5GP4WHLPs3xP9OF-m- -s7fR-1omcSJix6KHIns2eDCvCpBLIKCMr5B38cBGpU2uDR2OSbovWP03DmcWekRIXsajiFk2XYPeMIjt8ihLx1bHBItigzQQQ5NC2KnxaMTZLqPa8Lf-3aGyC_YTHg1LPzv6YMvRPGYSNwJxanSqEx9Cbr8wohSuozKwzoJu8lN_vupOqzLHYAIbEkZu-tMukLl1EBN1VMRkKAqBxIuhUQ-TDIPcVhCojIaR24crlvvfSRPmN_qhBfJ_O5asp1zMw9ziAXnLA1mhRylhDcvPiNYn9csPmP3eFNPp0zlxcONJgvCxyUHHvKyEBus0Dd1E_KGiYeUCEDTYbA4Qai1oqM7sm4LvFf3HooJ1ooIfn310yH00nomxLaIpw04JoKBu_xRW-1QxuedRYzykKnWiU8omJ8IHIruT0Ah0RHhes-q-pbHIhseGnXsFRQqlVb6i5aZX3cchPhK8wsIbCOPGb6yC_VutjXC5ShoBuaC7dxAYetNr1PEXnErtzqMMzhkME6ePNd7MxFRGDA8p3SxeKMXb53gCFpTWTbxupWPqeSq-1eWjQhq4gXpZDjTBOvQUjKKEXMhSFbkLxBLge4QxtotT4HJ3uwLSTAf3c2rvnfBDw3erBKU8nSvy109CxAO0I3QdCGrRgZQjKchLMu34aHEdgta3ga1iNM_Sy8VNEpB3ilkjSz-RP6jjT-kNXij7IBWlzFHzUkc16uIub1neb1oowiIOJmUy-8rtLnXxbQjL4Nc2-AEddRRtPyZp7WeiSotapfxYwyKjD3WpVEk6LuLPbIl2AE3hDuit4Jb1wc0ik1pGrSnZbc6FFs_T6tCACxsHMV9oZrJfb26RAS9tW60iXiEhw6rQ62axEByykgiblIiWERLFph70rxsAK-JxISzJLzBunQCSR50sK7OKft_wjT6A_ECHiJECBbB7t2nLItyfbhSOVhUcCFHoPd42nsFgUCkMg4fLsklrgLe6-ZOi7e0GRDBXzWcuDHgIeAw-hAufWd0kLH3X2r6-i06GwRAMkIYTFpAQf3geoxZQW0Arq9QPFPWjiPHXXixBLMhlcd74UvOPYDBZ6W_f6WvhzoMnmvqoeJt8rw8rHqdBOF1OVX-yboZjrWK51bCTfXr5CL5szXjTsvfdta3Tdq6oxPfZPezH5Esq-bkDLJHJlNs06PkwyRA408hF_2SVTJlluA7zWACBsLZ0whCSzDp9QOHo7lb5vw4pZqCl2rWX-W30bNRZ3x0eVubL_ULic3gaHPbdf8zScxoaORn5BCrliX7a8H5-Bc319x0j7Fd75_Zq8HD9sLEeXX6b8UErneQfxAu049NnPkgCKCDMHmVEmZYrSi3kW8HFgUEq2D8BoQwtrSCnJZ-dV8H88yaD1tM8BQAVwKaaeYEdsGGJZeEa69H1qy8wokfE4CAqKxIemFAOBDkVOHedepIAZRCPk44eIMSu7PV4wOcxOCByOs_4yRtun6u2_DxvpZRGtHDd5TI3U_FyDH2yQfM99O63kTLYgF8AHDAbKvEA0ISX4Uo-Hu2MF1jOXzobnL6uYifn5LLux1KOica52zZxJwhxLcjZAwBnZilPbEBeTF7wUVOgurOlShrqRZfho6p_JF4_oMBfOWr20V_kiOUTlzcoKLb4QNzDmm_Iy0]--></g></svg>