<svg xmlns="http://www.w3.org/2000/svg" xmlns:xlink="http://www.w3.org/1999/xlink" contentStyleType="text/css" height="703px" preserveAspectRatio="none" style="width:1928px;height:703px;background:#FFFFFF;" version="1.1" viewBox="0 0 1928 703" width="1928px" zoomAndPan="magnify"><defs/><g><!--cluster sitmun--><g id="cluster_sitmun"><path d="M8.5,6 L66.5,6 A3.75,3.75 0 0 1 69,8.5 L76,28.2969 L1918.5,28.2969 A2.5,2.5 0 0 1 1921,30.7969 L1921,693.5 A2.5,2.5 0 0 1 1918.5,696 L8.5,696 A2.5,2.5 0 0 1 6,693.5 L6,8.5 A2.5,2.5 0 0 1 8.5,6 " fill="none" style="stroke:#000000;stroke-width:1.5;"/><line style="stroke:#000000;stroke-width:1.5;" x1="6" x2="76" y1="28.2969" y2="28.2969"/><text fill="#000000" font-family="sans-serif" font-size="14" font-weight="bold" lengthAdjust="spacing" textLength="57" x="10" y="20.9951">sitmun</text></g><!--cluster common--><g id="cluster_common"><path d="M540.5,49 L610.5,49 A3.75,3.75 0 0 1 613,51.5 L620,71.2969 L1894.5,71.2969 A2.5,2.5 0 0 1 1897,73.7969 L1897,669.5 A2.5,2.5 0 0 1 1894.5,672 L540.5,672 A2.5,2.5 0 0 1 538,669.5 L538,51.5 A2.5,2.5 0 0 1 540.5,49 " fill="none" style="stroke:#000000;stroke-width:1.5;"/><line style="stroke:#000000;stroke-width:1.5;" x1="538" x2="620" y1="71.2969" y2="71.2969"/><text fill="#000000" font-family="sans-serif" font-size="14" font-weight="bold" lengthAdjust="spacing" textLength="69" x="542" y="63.9951">common</text></g><!--cluster security--><g id="cluster_security"><path d="M1050.5,100 L1117.5,100 A3.75,3.75 0 0 1 1120,102.5 L1127,122.2969 L1614.5,122.2969 A2.5,2.5 0 0 1 1617,124.7969 L1617,637.5 A2.5,2.5 0 0 1 1614.5,640 L1050.5,640 A2.5,2.5 0 0 1 1048,637.5 L1048,102.5 A2.5,2.5 0 0 1 1050.5,100 " fill="none" style="stroke:#000000;stroke-width:1.5;"/><line style="stroke:#000000;stroke-width:1.5;" x1="1048" x2="1127" y1="122.2969" y2="122.2969"/><text fill="#000000" font-family="sans-serif" font-size="14" font-weight="bold" lengthAdjust="spacing" textLength="66" x="1052" y="114.9951">security</text></g><!--cluster feature--><g id="cluster_feature"><path d="M32.5,74 L93.5,74 A3.75,3.75 0 0 1 96,76.5 L103,96.2969 L511.5,96.2969 A2.5,2.5 0 0 1 514,98.7969 L514,397 A2.5,2.5 0 0 1 511.5,399.5 L32.5,399.5 A2.5,2.5 0 0 1 30,397 L30,76.5 A2.5,2.5 0 0 1 32.5,74 " fill="none" style="stroke:#000000;stroke-width:1.5;"/><line style="stroke:#000000;stroke-width:1.5;" x1="30" x2="103" y1="96.2969" y2="96.2969"/><text fill="#000000" font-family="sans-serif" font-size="14" font-weight="bold" lengthAdjust="spacing" textLength="60" x="34" y="88.9951">feature</text></g><!--cluster client--><g id="cluster_client"><path d="M276.5,117 L323.5,117 A3.75,3.75 0 0 1 326,119.5 L333,139.2969 L487.5,139.2969 A2.5,2.5 0 0 1 490,141.7969 L490,373 A2.5,2.5 0 0 1 487.5,375.5 L276.5,375.5 A2.5,2.5 0 0 1 274,373 L274,119.5 A2.5,2.5 0 0 1 276.5,117 " fill="none" style="stroke:#000000;stroke-width:1.5;"/><line style="stroke:#000000;stroke-width:1.5;" x1="274" x2="333" y1="139.2969" y2="139.2969"/><text fill="#000000" font-family="sans-serif" font-size="14" font-weight="bold" lengthAdjust="spacing" textLength="46" x="278" y="131.9951">client</text></g><g id="elem_GMN5"><path d="M654.5,569.5 L654.5,609.7656 A0,0 0 0 0 654.5,609.7656 L945.5,609.7656 A0,0 0 0 0 945.5,609.7656 L945.5,579.5 L935.5,569.5 L804,569.5 L800,503.279 L796,569.5 L654.5,569.5 A0,0 0 0 0 654.5,569.5 " fill="#FEFFDD" style="stroke:#181818;stroke-width:0.5;"/><path d="M935.5,569.5 L935.5,579.5 L945.5,579.5 L935.5,569.5 " fill="#FEFFDD" style="stroke:#181818;stroke-width:0.5;"/><text fill="#000000" font-family="sans-serif" font-size="13" lengthAdjust="spacing" textLength="266" x="660.5" y="586.5669">Estandarización de longitudes de campos</text><text fill="#000000" font-family="sans-serif" font-size="13" lengthAdjust="spacing" textLength="194" x="660.5" y="601.6997">Nombres de listas controladas</text></g><g id="elem_GMN9"><path d="M554.5,274 L554.5,389.9297 A0,0 0 0 0 554.5,389.9297 L815.5,389.9297 A0,0 0 0 0 815.5,389.9297 L815.5,284 L805.5,274 L800.25,274 L796.25,205.238 L792.25,274 L554.5,274 A0,0 0 0 0 554.5,274 " fill="#FEFFDD" style="stroke:#181818;stroke-width:0.5;"/><path d="M805.5,274 L805.5,284 L815.5,284 L805.5,274 " fill="#FEFFDD" style="stroke:#181818;stroke-width:0.5;"/><text fill="#000000" font-family="sans-serif" font-size="13" lengthAdjust="spacing" textLength="202" x="560.5" y="291.0669">Definición de clases de dominio</text><text fill="#000000" font-family="sans-serif" font-size="13" lengthAdjust="spacing" textLength="178" x="560.5" y="306.1997">Cada definición esta junto a</text><text fill="#000000" font-family="sans-serif" font-size="13" lengthAdjust="spacing" textLength="186" x="560.5" y="321.3325">la definición de su respectivo</text><text fill="#000000" font-family="sans-serif" font-size="13" lengthAdjust="spacing" textLength="240" x="560.5" y="336.4653">su repositorio, projección y validación</text><text fill="#000000" font-family="sans-serif" font-size="13" lengthAdjust="spacing" textLength="100" x="560.5" y="351.5981">si es necesario;</text><text fill="#000000" font-family="sans-serif" font-size="13" font-weight="bold" lengthAdjust="spacing" textLength="166" x="560.5" y="366.731">API de Administración</text><text fill="#000000" font-family="sans-serif" font-size="13" lengthAdjust="spacing" textLength="4" x="726.5" y="366.731"> </text><text fill="#000000" font-family="sans-serif" font-size="13" lengthAdjust="spacing" textLength="168" x="560.5" y="381.8638">relacionada con entidades</text></g><g id="elem_GMN13"><path d="M866.5,456.5 L866.5,496.7656 A0,0 0 0 0 866.5,496.7656 L1023.5,496.7656 A0,0 0 0 0 1023.5,496.7656 L1023.5,466.5 L1013.5,456.5 L959.75,456.5 L955.75,358.504 L951.75,456.5 L866.5,456.5 A0,0 0 0 0 866.5,456.5 " fill="#FEFFDD" style="stroke:#181818;stroke-width:0.5;"/><path d="M1013.5,456.5 L1013.5,466.5 L1023.5,466.5 L1013.5,456.5 " fill="#FEFFDD" style="stroke:#181818;stroke-width:0.5;"/><text fill="#000000" font-family="sans-serif" font-size="13" lengthAdjust="spacing" textLength="136" x="872.5" y="473.5669">Conversores de tipos</text><text fill="#000000" font-family="sans-serif" font-size="13" lengthAdjust="spacing" textLength="118" x="872.5" y="488.6997">usados en domain</text></g><g id="elem_GMN38"><path d="M1641.5,296.5 L1641.5,367.0313 L1880.5,367.0313 L1880.5,306.5 L1870.5,296.5 L1641.5,296.5 " fill="#FEFFDD" style="stroke:#181818;stroke-width:0.5;"/><path d="M1870.5,296.5 L1870.5,306.5 L1880.5,306.5 L1870.5,296.5 " fill="#FEFFDD" style="stroke:#181818;stroke-width:1.0;"/><text fill="#000000" font-family="sans-serif" font-size="13" lengthAdjust="spacing" textLength="188" x="1647.5" y="313.5669">Definición de la configuración</text><text fill="#000000" font-family="sans-serif" font-size="13" lengthAdjust="spacing" textLength="218" x="1647.5" y="328.6997">de Spring Security y herramientas</text><text fill="#000000" font-family="sans-serif" font-size="13" lengthAdjust="spacing" textLength="71" x="1647.5" y="343.8325">adicionales</text><text fill="#FF0000" font-family="sans-serif" font-size="13" lengthAdjust="spacing" textLength="198" x="1647.5" y="358.9653">Refactorizar para extraer 3 API</text></g><path d="M771.5,450 L796.5,450 A3.75,3.75 0 0 1 799,452.5 L806,472.2969 L828.5,472.2969 A2.5,2.5 0 0 1 831,474.7969 L831,500.0938 A2.5,2.5 0 0 1 828.5,502.5938 L771.5,502.5938 A2.5,2.5 0 0 1 769,500.0938 L769,452.5 A2.5,2.5 0 0 1 771.5,450 " fill="#F1F1F1" style="stroke:#181818;stroke-width:0.5;"/><line style="stroke:#181818;stroke-width:0.5;" x1="769" x2="806" y1="472.2969" y2="472.2969"/><text fill="#000000" font-family="sans-serif" font-size="14" lengthAdjust="spacing" textLength="24" x="773" y="464.9951">def</text><text fill="#000000" font-family="sans-serif" font-size="14" font-style="italic" lengthAdjust="spacing" textLength="40" x="784" y="487.292">«util»</text><path d="M779.5,152 L833.5,152 A3.75,3.75 0 0 1 836,154.5 L843,174.2969 L924.5,174.2969 A2.5,2.5 0 0 1 927,176.7969 L927,202.0938 A2.5,2.5 0 0 1 924.5,204.5938 L779.5,204.5938 A2.5,2.5 0 0 1 777,202.0938 L777,154.5 A2.5,2.5 0 0 1 779.5,152 " fill="#F1F1F1" style="stroke:#181818;stroke-width:0.5;"/><line style="stroke:#181818;stroke-width:0.5;" x1="777" x2="843" y1="174.2969" y2="174.2969"/><text fill="#000000" font-family="sans-serif" font-size="14" lengthAdjust="spacing" textLength="53" x="781" y="166.9951">domain</text><text fill="#000000" font-family="sans-serif" font-size="14" font-style="italic" lengthAdjust="spacing" textLength="128" x="792" y="189.292">«domain entities»</text><path d="M890.5,305.5 L932.5,305.5 A3.75,3.75 0 0 1 935,308 L942,327.7969 L1021.5,327.7969 A2.5,2.5 0 0 1 1024,330.2969 L1024,355.5938 A2.5,2.5 0 0 1 1021.5,358.0938 L890.5,358.0938 A2.5,2.5 0 0 1 888,355.5938 L888,308 A2.5,2.5 0 0 1 890.5,305.5 " fill="#F1F1F1" style="stroke:#181818;stroke-width:0.5;"/><line style="stroke:#181818;stroke-width:0.5;" x1="888" x2="942" y1="327.7969" y2="327.7969"/><text fill="#000000" font-family="sans-serif" font-size="14" lengthAdjust="spacing" textLength="41" x="892" y="320.4951">types</text><text fill="#000000" font-family="sans-serif" font-size="14" font-style="italic" lengthAdjust="spacing" textLength="114" x="903" y="342.792">«domain types»</text><g id="elem_GMN20"><path d="M1180,143 L1180,175 L1145.39,179 L1180,183 L1180,213.5313 A0,0 0 0 0 1180,213.5313 L1550,213.5313 A0,0 0 0 0 1550,213.5313 L1550,153 L1540,143 L1180,143 A0,0 0 0 0 1180,143 " fill="#FEFFDD" style="stroke:#181818;stroke-width:0.5;"/><path d="M1540,143 L1540,153 L1550,153 L1540,143 " fill="#FEFFDD" style="stroke:#181818;stroke-width:0.5;"/><text fill="#000000" font-family="sans-serif" font-size="13" lengthAdjust="spacing" textLength="244" x="1186" y="160.0669">Aquí estaría el filtro de JWT Token que</text><text fill="#000000" font-family="sans-serif" font-size="13" lengthAdjust="spacing" textLength="38" x="1186" y="175.1997">usa la</text><text fill="#000000" font-family="sans-serif" font-size="13" font-weight="bold" lengthAdjust="spacing" textLength="272" x="1228" y="175.1997">API de Configuración y Autorización</text><text fill="#000000" font-family="sans-serif" font-size="13" lengthAdjust="spacing" textLength="258" x="1186" y="190.3325">cuando la petición procede de un cliente</text><text fill="#000000" font-family="sans-serif" font-size="13" lengthAdjust="spacing" textLength="187" x="1186" y="205.4653">previamente autenticado por</text><text fill="#000000" font-family="sans-serif" font-size="13" font-weight="bold" lengthAdjust="spacing" textLength="158" x="1377" y="205.4653">API de Autenticación</text></g><g id="elem_GMN24"><path d="M1211,296.5 L1211,328 L1175.79,332 L1211,336 L1211,367.0313 A0,0 0 0 0 1211,367.0313 L1555,367.0313 A0,0 0 0 0 1555,367.0313 L1555,306.5 L1545,296.5 L1211,296.5 A0,0 0 0 0 1211,296.5 " fill="#FEFFDD" style="stroke:#181818;stroke-width:0.5;"/><path d="M1545,296.5 L1545,306.5 L1555,306.5 L1545,296.5 " fill="#FEFFDD" style="stroke:#181818;stroke-width:0.5;"/><text fill="#000000" font-family="sans-serif" font-size="13" lengthAdjust="spacing" textLength="323" x="1217" y="313.5669">Aquí estaría un ejemplo de filtro para implementar</text><text fill="#000000" font-family="sans-serif" font-size="13" lengthAdjust="spacing" textLength="123" x="1217" y="328.6997">el Proxy Token que</text><text fill="#000000" font-family="sans-serif" font-size="13" lengthAdjust="spacing" textLength="38" x="1217" y="343.8325">usa la</text><text fill="#000000" font-family="sans-serif" font-size="13" font-weight="bold" lengthAdjust="spacing" textLength="272" x="1259" y="343.8325">API de Configuración y Autorización</text><text fill="#000000" font-family="sans-serif" font-size="13" lengthAdjust="spacing" textLength="240" x="1217" y="358.9653">cuando la petición procede del proxy.</text></g><g id="elem_GMN28"><path d="M1185.5,464 L1185.5,473 L1150.26,477 L1185.5,481 L1185.5,489.1328 A0,0 0 0 0 1185.5,489.1328 L1584.5,489.1328 A0,0 0 0 0 1584.5,489.1328 L1584.5,474 L1574.5,464 L1185.5,464 A0,0 0 0 0 1185.5,464 " fill="#FEFFDD" style="stroke:#181818;stroke-width:0.5;"/><path d="M1574.5,464 L1574.5,474 L1584.5,474 L1574.5,464 " fill="#FEFFDD" style="stroke:#181818;stroke-width:0.5;"/><text fill="#000000" font-family="sans-serif" font-size="13" lengthAdjust="spacing" textLength="378" x="1191.5" y="481.0669">Servicios de acceso a detalle de usuarios en base de datos</text></g><g id="elem_GMN32"><path d="M1171.5,577 L1171.5,586 L1136.11,590 L1171.5,594 L1171.5,602.1328 A0,0 0 0 0 1171.5,602.1328 L1350.5,602.1328 A0,0 0 0 0 1350.5,602.1328 L1350.5,587 L1340.5,577 L1171.5,577 A0,0 0 0 0 1171.5,577 " fill="#FEFFDD" style="stroke:#181818;stroke-width:0.5;"/><path d="M1340.5,577 L1340.5,587 L1350.5,587 L1340.5,577 " fill="#FEFFDD" style="stroke:#181818;stroke-width:0.5;"/><text fill="#000000" font-family="sans-serif" font-size="13" font-weight="bold" lengthAdjust="spacing" textLength="158" x="1177.5" y="594.0669">API de Autenticación</text></g><path d="M1105.5,152 L1128.5,152 A3.75,3.75 0 0 1 1131,154.5 L1138,174.2969 L1142.5,174.2969 A2.5,2.5 0 0 1 1145,176.7969 L1145,202.0938 A2.5,2.5 0 0 1 1142.5,204.5938 L1105.5,204.5938 A2.5,2.5 0 0 1 1103,202.0938 L1103,154.5 A2.5,2.5 0 0 1 1105.5,152 " fill="#F1F1F1" style="stroke:#181818;stroke-width:0.5;"/><line style="stroke:#181818;stroke-width:0.5;" x1="1103" x2="1138" y1="174.2969" y2="174.2969"/><text fill="#000000" font-family="sans-serif" font-size="14" lengthAdjust="spacing" textLength="22" x="1107" y="166.9951">jwt</text><path d="M1075,305.5 L1159,305.5 A3.75,3.75 0 0 1 1161.5,308 L1168.5,327.7969 L1173,327.7969 A2.5,2.5 0 0 1 1175.5,330.2969 L1175.5,355.5938 A2.5,2.5 0 0 1 1173,358.0938 L1075,358.0938 A2.5,2.5 0 0 1 1072.5,355.5938 L1072.5,308 A2.5,2.5 0 0 1 1075,305.5 " fill="#F1F1F1" style="stroke:#181818;stroke-width:0.5;"/><line style="stroke:#181818;stroke-width:0.5;" x1="1072.5" x2="1168.5" y1="327.7969" y2="327.7969"/><text fill="#000000" font-family="sans-serif" font-size="14" lengthAdjust="spacing" textLength="83" x="1076.5" y="320.4951">middleware</text><path d="M1074.5,450 L1133.5,450 A3.75,3.75 0 0 1 1136,452.5 L1143,472.2969 L1147.5,472.2969 A2.5,2.5 0 0 1 1150,474.7969 L1150,500.0938 A2.5,2.5 0 0 1 1147.5,502.5938 L1074.5,502.5938 A2.5,2.5 0 0 1 1072,500.0938 L1072,452.5 A2.5,2.5 0 0 1 1074.5,450 " fill="#F1F1F1" style="stroke:#181818;stroke-width:0.5;"/><line style="stroke:#181818;stroke-width:0.5;" x1="1072" x2="1143" y1="472.2969" y2="472.2969"/><text fill="#000000" font-family="sans-serif" font-size="14" lengthAdjust="spacing" textLength="58" x="1076" y="464.9951">services</text><path d="M1088.5,563 L1119.5,563 A3.75,3.75 0 0 1 1122,565.5 L1129,585.2969 L1133.5,585.2969 A2.5,2.5 0 0 1 1136,587.7969 L1136,613.0938 A2.5,2.5 0 0 1 1133.5,615.5938 L1088.5,615.5938 A2.5,2.5 0 0 1 1086,613.0938 L1086,565.5 A2.5,2.5 0 0 1 1088.5,563 " fill="#F1F1F1" style="stroke:#181818;stroke-width:0.5;"/><line style="stroke:#181818;stroke-width:0.5;" x1="1086" x2="1129" y1="585.2969" y2="585.2969"/><text fill="#000000" font-family="sans-serif" font-size="14" lengthAdjust="spacing" textLength="30" x="1090" y="577.9951">web</text><g id="elem_GMN43"><path d="M46.5,312 L46.5,352.2656 A0,0 0 0 0 46.5,352.2656 L255.5,352.2656 A0,0 0 0 0 255.5,352.2656 L255.5,322 L245.5,312 L155,312 L151,205.238 L147,312 L46.5,312 A0,0 0 0 0 46.5,312 " fill="#FEFFDD" style="stroke:#181818;stroke-width:0.5;"/><path d="M245.5,312 L245.5,322 L255.5,322 L245.5,312 " fill="#FEFFDD" style="stroke:#181818;stroke-width:0.5;"/><text fill="#000000" font-family="sans-serif" font-size="13" font-weight="bold" lengthAdjust="spacing" textLength="166" x="52.5" y="329.0669">API de Administración</text><text fill="#000000" font-family="sans-serif" font-size="13" lengthAdjust="spacing" textLength="4" x="218.5" y="329.0669"> </text><text fill="#000000" font-family="sans-serif" font-size="13" lengthAdjust="spacing" textLength="188" x="52.5" y="344.1997">no relacionada con entidades</text></g><path d="M121.5,152 L166.5,152 A3.75,3.75 0 0 1 169,154.5 L176,174.2969 L180.5,174.2969 A2.5,2.5 0 0 1 183,176.7969 L183,202.0938 A2.5,2.5 0 0 1 180.5,204.5938 L121.5,204.5938 A2.5,2.5 0 0 1 119,202.0938 L119,154.5 A2.5,2.5 0 0 1 121.5,152 " fill="#F1F1F1" style="stroke:#181818;stroke-width:0.5;"/><line style="stroke:#181818;stroke-width:0.5;" x1="119" x2="176" y1="174.2969" y2="174.2969"/><text fill="#000000" font-family="sans-serif" font-size="14" lengthAdjust="spacing" textLength="44" x="123" y="166.9951">admin</text><g id="elem_GMN48"><path d="M290.5,304.5 L290.5,359.8984 A0,0 0 0 0 290.5,359.8984 L473.5,359.8984 A0,0 0 0 0 473.5,359.8984 L473.5,314.5 L463.5,304.5 L386,304.5 L382,205.238 L378,304.5 L290.5,304.5 A0,0 0 0 0 290.5,304.5 " fill="#FEFFDD" style="stroke:#181818;stroke-width:0.5;"/><path d="M463.5,304.5 L463.5,314.5 L473.5,314.5 L463.5,304.5 " fill="#FEFFDD" style="stroke:#181818;stroke-width:0.5;"/><text fill="#000000" font-family="sans-serif" font-size="13" lengthAdjust="spacing" textLength="151" x="296.5" y="321.5669">Prueba de concepto del</text><text fill="#000000" font-family="sans-serif" font-size="13" font-weight="bold" lengthAdjust="spacing" textLength="158" x="296.5" y="336.6997">API de Configuración</text><text fill="#000000" font-family="sans-serif" font-size="13" lengthAdjust="spacing" textLength="4" x="454.5" y="336.6997"> </text><text fill="#000000" font-family="sans-serif" font-size="13" font-weight="bold" lengthAdjust="spacing" textLength="109" x="296.5" y="351.8325">y Autorización</text></g><path d="M352,152 L398,152 A3.75,3.75 0 0 1 400.5,154.5 L407.5,174.2969 L412,174.2969 A2.5,2.5 0 0 1 414.5,176.7969 L414.5,202.0938 A2.5,2.5 0 0 1 412,204.5938 L352,204.5938 A2.5,2.5 0 0 1 349.5,202.0938 L349.5,154.5 A2.5,2.5 0 0 1 352,152 " fill="#F1F1F1" style="stroke:#181818;stroke-width:0.5;"/><line style="stroke:#181818;stroke-width:0.5;" x1="349.5" x2="407.5" y1="174.2969" y2="174.2969"/><text fill="#000000" font-family="sans-serif" font-size="14" lengthAdjust="spacing" textLength="45" x="353.5" y="166.9951">config</text><!--link domain to def--><g id="link_domain_def"><path codeLine="32" d="M823.25,205.208 C823.25,205.208 823.25,444.745 823.25,444.745 " fill="none" id="domain-to-def" style="stroke:#181818;stroke-width:1.0;stroke-dasharray:7.0,7.0;"/><polygon fill="#181818" points="823.25,449.745,827.25,440.745,823.25,444.745,819.25,440.745,823.25,449.745" style="stroke:#181818;stroke-width:1.0;"/><text fill="#000000" font-family="sans-serif" font-size="13" lengthAdjust="spacing" textLength="58" x="824.25" y="321.0429">«import»</text></g><!--link domain to types--><g id="link_domain_types"><path codeLine="33" d="M907.5,205.238 C907.5,205.238 907.5,300.312 907.5,300.312 " fill="none" id="domain-to-types" style="stroke:#181818;stroke-width:1.0;stroke-dasharray:7.0,7.0;"/><polygon fill="#181818" points="907.5,305.312,911.5,296.312,907.5,300.312,903.5,296.312,907.5,305.312" style="stroke:#181818;stroke-width:1.0;"/><text fill="#000000" font-family="sans-serif" font-size="13" lengthAdjust="spacing" textLength="58" x="848.5" y="248.8419">«import»</text></g><!--link jwt to middleware--><!--link middleware to services--><!--link services to web--><!--link security to GMN38--><g id="link_security_GMN38"><path d="M1617.0132,332 C1617.3511,332 1617.6984,332 1618.055,332 C1623.76,332 1631.82,332 1641.24,332 " fill="none" id="security-GMN38" style="stroke:#181818;stroke-width:1.0;stroke-dasharray:7.0,7.0;"/></g><!--SRC=[lLKxRXin4ErrYe6Q04Bi5EaSGO1XkqWAsuWDf0XIKEH8eimbr_p8bWCToLMEu8jbIAvsgH-Yf8WgQZxBDs_U3D_1zGrSt5nUzNhkGUgQMLQ1aXhziaOmrizChsRyWKqH-axwAkW-_Em1_LepDrLbMdFX43Zfmt0Ol5IZ4RaR_mgQWpOUOMoyDnMOIOvlN01NpZCjc9KlZCktNne4WZ9wAdqGwE8_pghQE6Wphaqrjjcb96Kxu4PxQnGJp3LHg4MwTWUggPZK4Mq-KQ2NNg8x3dZERf5SuaHgsSBcYhcCYmB9OTh02u96zYuQ2JVCW_O6M1kbDcFeEou0LLeZztBHVIrPYHBfZPNcFTJMp97df2Kic98YSzbbIBeHD79qnBJvr3e6W_FRp_6cSn4HEszpvc3GyMrHaT7eM0CndIWJZ9hp1wwZj5n1TVf_5CyvisFFw0LQPvgcUqcrjyxWc21re8PypNvGwzQTYjEJKHBW6G6J92phHwFTe563OIDgkq27F5Zfbzr85Cxva-ztfHR5DkLQEPtvL6sCR7q0vu_XxJK9nBwzCa054wb8th7qBz_kuTuyKB6F0Q588XQYVDfs4cKJEGrDDqaLvo6AvMNTtIAL1ve_4xDhz8tqI54SeuuHWYPTI-hvndsrnOLaLJApuACaEFK1YAb2Ksl7zgLRpIbOgwGG2f-OnIF9An8ESqWru1ohMYKI6phZ3WJghS9O1hD5Ed5-QytpyZzphUBvUNbw14yExKBoE5v7iTI65rZkaasQD5ECavTs4PqzKoftteMuBD9iZMcpfSN6V35xX_4zuVX8Q36oGFKFubaVqY2TYEypaWJg7pJdUyHHsZPYToZgB1jn1Tw3-wjT38TU2fKsQQcQDfAyTxMLUaeDobyXHStGqeCTfv1rx3CXqrfMsDc6t2XZpooAqLUSC9w5QBFOyPdMErhu2CJny4CA7UtRbwlDXt-2p8SyaLjjPl7LADVVcfa3nEJultfzjFdd1oZlhRtRERE_1tc7VHTzarIezTO67BFqzXlDiVOcZV4-FMzkYRB267HuQMmLjseQjFeD]--></g></svg>