<?xml version="1.0" encoding="UTF-8" standalone="no"?>
<!DOCTYPE svg PUBLIC "-//W3C//DTD SVG 1.1//EN"
 "http://www.w3.org/Graphics/SVG/1.1/DTD/svg11.dtd">
<!-- Generated by graphviz version 2.40.1 (20161225.0304)
 -->
<!-- Title: dependencies Pages: 1 -->
<svg width="504pt" height="284pt"
 viewBox="0.00 0.00 504.00 284.00" xmlns="http://www.w3.org/2000/svg" xmlns:xlink="http://www.w3.org/1999/xlink">
<g id="graph0" class="graph" transform="scale(1 1) rotate(0) translate(4 280)">
<title>dependencies</title>
<polygon fill="#ffffff" stroke="transparent" points="-4,4 -4,-280 500,-280 500,4 -4,4"/>
<text text-anchor="start" x="227.0091" y="-42.4" font-family="sans-serif" font-weight="bold" font-size="14.00" fill="#000000">Legend</text>
<polygon fill="#ffffb3" stroke="transparent" points="14,-10 14,-30 34,-30 34,-10 14,-10"/>
<text text-anchor="start" x="37.629" y="-15.4" font-family="sans-serif" font-size="14.00" fill="#000000"> &#160;Declarations</text>
<polygon fill="#8dd3c7" stroke="transparent" points="127,-10 127,-30 147,-30 147,-10 127,-10"/>
<text text-anchor="start" x="150.7251" y="-15.4" font-family="sans-serif" font-size="14.00" fill="#000000"> &#160;Module</text>
<polygon fill="#80b1d3" stroke="transparent" points="213,-10 213,-30 233,-30 233,-10 213,-10"/>
<text text-anchor="start" x="236.7812" y="-15.4" font-family="sans-serif" font-size="14.00" fill="#000000"> &#160;Bootstrap</text>
<polygon fill="#fdb462" stroke="transparent" points="310,-10 310,-30 330,-30 330,-10 310,-10"/>
<text text-anchor="start" x="333.6732" y="-15.4" font-family="sans-serif" font-size="14.00" fill="#000000"> &#160;Providers</text>
<polygon fill="#fb8072" stroke="transparent" points="406,-10 406,-30 426,-30 426,-10 406,-10"/>
<text text-anchor="start" x="429.7258" y="-15.4" font-family="sans-serif" font-size="14.00" fill="#000000"> &#160;Exports</text>
<g id="clust1" class="cluster">
<title>cluster_AppModule</title>
<polygon fill="none" stroke="#000000" stroke-dasharray="1,5" points="14.5,-70 14.5,-268 481.5,-268 481.5,-70 14.5,-70"/>
</g>
<g id="clust2" class="cluster">
<title>cluster_AppModule_declarations</title>
<polygon fill="none" stroke="#000000" points="218.5,-78 218.5,-130 473.5,-130 473.5,-78 218.5,-78"/>
</g>
<g id="clust5" class="cluster">
<title>cluster_AppModule_imports</title>
<polygon fill="none" stroke="#000000" points="22.5,-78 22.5,-130 210.5,-130 210.5,-78 22.5,-78"/>
</g>
<g id="clust7" class="cluster">
<title>cluster_AppModule_bootstrap</title>
<polygon fill="none" stroke="#000000" points="222.5,-208 222.5,-260 346.5,-260 346.5,-208 222.5,-208"/>
</g>
<!-- AppComponent -->
<g id="node1" class="node">
<title>AppComponent</title>
<polygon fill="#ffffb3" stroke="#000000" points="465.4399,-122 359.5601,-122 359.5601,-86 465.4399,-86 465.4399,-122"/>
<text text-anchor="middle" x="412.5" y="-99.8" font-family="Times,serif" font-size="14.00" fill="#000000">AppComponent</text>
</g>
<!-- AppModule -->
<g id="node3" class="node">
<title>AppModule</title>
<polygon fill="#8dd3c7" stroke="#000000" points="326.1571,-187 323.1571,-191 302.1571,-191 299.1571,-187 242.8429,-187 242.8429,-151 326.1571,-151 326.1571,-187"/>
<text text-anchor="middle" x="284.5" y="-164.8" font-family="Times,serif" font-size="14.00" fill="#000000">AppModule</text>
</g>
<!-- AppComponent&#45;&gt;AppModule -->
<g id="edge1" class="edge">
<title>AppComponent&#45;&gt;AppModule</title>
<path fill="none" stroke="#000000" d="M412.5,-122.1061C412.5,-141.3391 412.5,-169 412.5,-169 412.5,-169 336.412,-169 336.412,-169"/>
<polygon fill="#000000" stroke="#000000" points="336.412,-165.5001 326.412,-169 336.412,-172.5001 336.412,-165.5001"/>
</g>
<!-- HomeComponent -->
<g id="node2" class="node">
<title>HomeComponent</title>
<polygon fill="#ffffb3" stroke="#000000" points="342.0451,-122 226.9549,-122 226.9549,-86 342.0451,-86 342.0451,-122"/>
<text text-anchor="middle" x="284.5" y="-99.8" font-family="Times,serif" font-size="14.00" fill="#000000">HomeComponent</text>
</g>
<!-- HomeComponent&#45;&gt;AppModule -->
<g id="edge2" class="edge">
<title>HomeComponent&#45;&gt;AppModule</title>
<path fill="none" stroke="#000000" d="M284.5,-122.1061C284.5,-122.1061 284.5,-140.991 284.5,-140.991"/>
<polygon fill="#000000" stroke="#000000" points="281.0001,-140.9909 284.5,-150.991 288.0001,-140.991 281.0001,-140.9909"/>
</g>
<!-- AppComponent  -->
<g id="node5" class="node">
<title>AppComponent </title>
<polygon fill="#80b1d3" stroke="#000000" points="338.939,-252 230.061,-252 230.061,-216 338.939,-216 338.939,-252"/>
<text text-anchor="middle" x="284.5" y="-229.8" font-family="Times,serif" font-size="14.00" fill="#000000">AppComponent </text>
</g>
<!-- AppModule&#45;&gt;AppComponent  -->
<g id="edge4" class="edge">
<title>AppModule&#45;&gt;AppComponent </title>
<path fill="none" stroke="#000000" stroke-dasharray="1,5" d="M284.5,-187.1061C284.5,-187.1061 284.5,-205.991 284.5,-205.991"/>
<polygon fill="#000000" stroke="#000000" points="281.0001,-205.9909 284.5,-215.991 288.0001,-205.991 281.0001,-205.9909"/>
</g>
<!-- SitmunFrontendGuiModule -->
<g id="node4" class="node">
<title>SitmunFrontendGuiModule</title>
<polygon fill="#8dd3c7" stroke="#000000" points="202.0504,-122 199.0504,-126 178.0504,-126 175.0504,-122 30.9496,-122 30.9496,-86 202.0504,-86 202.0504,-122"/>
<text text-anchor="middle" x="116.5" y="-99.8" font-family="Times,serif" font-size="14.00" fill="#000000">SitmunFrontendGuiModule</text>
</g>
<!-- SitmunFrontendGuiModule&#45;&gt;AppModule -->
<g id="edge3" class="edge">
<title>SitmunFrontendGuiModule&#45;&gt;AppModule</title>
<path fill="none" stroke="#000000" d="M116.5,-122.1061C116.5,-141.3391 116.5,-169 116.5,-169 116.5,-169 232.5399,-169 232.5399,-169"/>
<polygon fill="#000000" stroke="#000000" points="232.5399,-172.5001 242.5399,-169 232.5398,-165.5001 232.5399,-172.5001"/>
</g>
</g>
</svg>
