<?xml version="1.0" encoding="UTF-8" standalone="no"?>
<!DOCTYPE svg PUBLIC "-//W3C//DTD SVG 1.1//EN"
 "http://www.w3.org/Graphics/SVG/1.1/DTD/svg11.dtd">
<!-- Generated by graphviz version 2.40.1 (20161225.0304)
 -->
<!-- Title: dependencies Pages: 1 -->
<svg width="672pt" height="284pt"
 viewBox="0.00 0.00 672.00 284.00" xmlns="http://www.w3.org/2000/svg" xmlns:xlink="http://www.w3.org/1999/xlink">
<g id="graph0" class="graph" transform="scale(1 1) rotate(0) translate(4 280)">
<title>dependencies</title>
<polygon fill="#ffffff" stroke="transparent" points="-4,4 -4,-280 668,-280 668,4 -4,4"/>
<text text-anchor="start" x="311.0091" y="-42.4" font-family="sans-serif" font-weight="bold" font-size="14.00" fill="#000000">Legend</text>
<polygon fill="#ffffb3" stroke="transparent" points="98,-10 98,-30 118,-30 118,-10 98,-10"/>
<text text-anchor="start" x="121.629" y="-15.4" font-family="sans-serif" font-size="14.00" fill="#000000"> &#160;Declarations</text>
<polygon fill="#8dd3c7" stroke="transparent" points="211,-10 211,-30 231,-30 231,-10 211,-10"/>
<text text-anchor="start" x="234.7251" y="-15.4" font-family="sans-serif" font-size="14.00" fill="#000000"> &#160;Module</text>
<polygon fill="#80b1d3" stroke="transparent" points="297,-10 297,-30 317,-30 317,-10 297,-10"/>
<text text-anchor="start" x="320.7812" y="-15.4" font-family="sans-serif" font-size="14.00" fill="#000000"> &#160;Bootstrap</text>
<polygon fill="#fdb462" stroke="transparent" points="394,-10 394,-30 414,-30 414,-10 394,-10"/>
<text text-anchor="start" x="417.6732" y="-15.4" font-family="sans-serif" font-size="14.00" fill="#000000"> &#160;Providers</text>
<polygon fill="#fb8072" stroke="transparent" points="490,-10 490,-30 510,-30 510,-10 490,-10"/>
<text text-anchor="start" x="513.7258" y="-15.4" font-family="sans-serif" font-size="14.00" fill="#000000"> &#160;Exports</text>
<g id="clust1" class="cluster">
<title>cluster_AngularHalModule</title>
<polygon fill="none" stroke="#000000" stroke-dasharray="1,5" points="8,-70 8,-195 186,-195 186,-70 8,-70"/>
</g>
<g id="clust6" class="cluster">
<title>cluster_AngularHalModule_providers</title>
<polygon fill="none" stroke="#000000" points="16,-78 16,-130 178,-130 178,-78 16,-78"/>
</g>
<g id="clust7" class="cluster">
<title>cluster_SitmunFrontendCoreModule</title>
<polygon fill="none" stroke="#000000" stroke-dasharray="1,5" points="194,-70 194,-268 656,-268 656,-70 194,-70"/>
</g>
<g id="clust8" class="cluster">
<title>cluster_SitmunFrontendCoreModule_declarations</title>
<polygon fill="none" stroke="#000000" points="206,-78 206,-130 644,-130 644,-78 206,-78"/>
</g>
<g id="clust12" class="cluster">
<title>cluster_SitmunFrontendCoreModule_exports</title>
<polygon fill="none" stroke="#000000" points="202,-208 202,-260 648,-260 648,-208 202,-208"/>
</g>
<!-- ExternalService -->
<g id="node1" class="node">
<title>ExternalService</title>
<ellipse fill="#fdb462" stroke="#000000" cx="97" cy="-104" rx="72.9082" ry="18"/>
<text text-anchor="middle" x="97" y="-99.8" font-family="Times,serif" font-size="14.00" fill="#000000">ExternalService</text>
</g>
<!-- AngularHalModule -->
<g id="node2" class="node">
<title>AngularHalModule</title>
<polygon fill="#8dd3c7" stroke="#000000" points="159.6345,-187 156.6345,-191 135.6345,-191 132.6345,-187 34.3655,-187 34.3655,-151 159.6345,-151 159.6345,-187"/>
<text text-anchor="middle" x="97" y="-164.8" font-family="Times,serif" font-size="14.00" fill="#000000">AngularHalModule</text>
</g>
<!-- ExternalService&#45;&gt;AngularHalModule -->
<g id="edge1" class="edge">
<title>ExternalService&#45;&gt;AngularHalModule</title>
<path fill="none" stroke="#000000" d="M97,-122.1061C97,-122.1061 97,-140.991 97,-140.991"/>
<polygon fill="#000000" stroke="#000000" points="93.5001,-140.9909 97,-150.991 100.5001,-140.991 93.5001,-140.9909"/>
</g>
<!-- HasAnyAuthorityDirective -->
<g id="node3" class="node">
<title>HasAnyAuthorityDirective</title>
<polygon fill="#ffffb3" stroke="#000000" points="636.3947,-122 467.6053,-122 467.6053,-86 636.3947,-86 636.3947,-122"/>
<text text-anchor="middle" x="552" y="-99.8" font-family="Times,serif" font-size="14.00" fill="#000000">HasAnyAuthorityDirective</text>
</g>
<!-- SitmunFrontendCoreModule -->
<g id="node5" class="node">
<title>SitmunFrontendCoreModule</title>
<polygon fill="#8dd3c7" stroke="#000000" points="421.7646,-187 418.7646,-191 397.7646,-191 394.7646,-187 244.2354,-187 244.2354,-151 421.7646,-151 421.7646,-187"/>
<text text-anchor="middle" x="333" y="-164.8" font-family="Times,serif" font-size="14.00" fill="#000000">SitmunFrontendCoreModule</text>
</g>
<!-- HasAnyAuthorityDirective&#45;&gt;SitmunFrontendCoreModule -->
<g id="edge2" class="edge">
<title>HasAnyAuthorityDirective&#45;&gt;SitmunFrontendCoreModule</title>
<path fill="none" stroke="#000000" d="M580.149,-122.0225C580.149,-139.3734 580.149,-163 580.149,-163 580.149,-163 431.8773,-163 431.8773,-163"/>
<polygon fill="#000000" stroke="#000000" points="431.8773,-159.5001 421.8773,-163 431.8773,-166.5001 431.8773,-159.5001"/>
</g>
<!-- HasAnyAuthorityOnTerritoryDirective -->
<g id="node4" class="node">
<title>HasAnyAuthorityOnTerritoryDirective</title>
<polygon fill="#ffffb3" stroke="#000000" points="450.031,-122 213.969,-122 213.969,-86 450.031,-86 450.031,-122"/>
<text text-anchor="middle" x="332" y="-99.8" font-family="Times,serif" font-size="14.00" fill="#000000">HasAnyAuthorityOnTerritoryDirective</text>
</g>
<!-- HasAnyAuthorityOnTerritoryDirective&#45;&gt;SitmunFrontendCoreModule -->
<g id="edge3" class="edge">
<title>HasAnyAuthorityOnTerritoryDirective&#45;&gt;SitmunFrontendCoreModule</title>
<path fill="none" stroke="#000000" d="M333,-122.1061C333,-122.1061 333,-140.991 333,-140.991"/>
<polygon fill="#000000" stroke="#000000" points="329.5001,-140.9909 333,-150.991 336.5001,-140.991 329.5001,-140.9909"/>
</g>
<!-- HasAnyAuthorityDirective  -->
<g id="node6" class="node">
<title>HasAnyAuthorityDirective </title>
<polygon fill="#fb8072" stroke="#000000" points="639.8942,-252 468.1058,-252 468.1058,-216 639.8942,-216 639.8942,-252"/>
<text text-anchor="middle" x="554" y="-229.8" font-family="Times,serif" font-size="14.00" fill="#000000">HasAnyAuthorityDirective </text>
</g>
<!-- SitmunFrontendCoreModule&#45;&gt;HasAnyAuthorityDirective  -->
<g id="edge4" class="edge">
<title>SitmunFrontendCoreModule&#45;&gt;HasAnyAuthorityDirective </title>
<path fill="none" stroke="#000000" stroke-dasharray="5,2" d="M421.837,-175C471.7418,-175 524.101,-175 524.101,-175 524.101,-175 524.101,-205.9775 524.101,-205.9775"/>
<polygon fill="#000000" stroke="#000000" points="520.6011,-205.9774 524.101,-215.9775 527.6011,-205.9775 520.6011,-205.9774"/>
</g>
<!-- HasAnyAuthorityOnTerritoryDirective  -->
<g id="node7" class="node">
<title>HasAnyAuthorityOnTerritoryDirective </title>
<polygon fill="#fb8072" stroke="#000000" points="449.5315,-252 210.4685,-252 210.4685,-216 449.5315,-216 449.5315,-252"/>
<text text-anchor="middle" x="330" y="-229.8" font-family="Times,serif" font-size="14.00" fill="#000000">HasAnyAuthorityOnTerritoryDirective </text>
</g>
<!-- SitmunFrontendCoreModule&#45;&gt;HasAnyAuthorityOnTerritoryDirective  -->
<g id="edge5" class="edge">
<title>SitmunFrontendCoreModule&#45;&gt;HasAnyAuthorityOnTerritoryDirective </title>
<path fill="none" stroke="#000000" stroke-dasharray="5,2" d="M333,-187.1061C333,-187.1061 333,-205.991 333,-205.991"/>
<polygon fill="#000000" stroke="#000000" points="329.5001,-205.9909 333,-215.991 336.5001,-205.991 329.5001,-205.9909"/>
</g>
</g>
</svg>
