<?xml version="1.0" encoding="UTF-8" standalone="no"?>
<!DOCTYPE svg PUBLIC "-//W3C//DTD SVG 1.1//EN"
 "http://www.w3.org/Graphics/SVG/1.1/DTD/svg11.dtd">
<!-- Generated by graphviz version 2.46.0 (20210119.1425)
 -->
<!-- Title: dependencies Pages: 1 -->
<svg width="672pt" height="284pt"
 viewBox="0.00 0.00 672.00 284.00" xmlns="http://www.w3.org/2000/svg" xmlns:xlink="http://www.w3.org/1999/xlink">
<g id="graph0" class="graph" transform="scale(1 1) rotate(0) translate(4 280)">
<title>dependencies</title>
<polygon fill="white" stroke="transparent" points="-4,4 -4,-280 668,-280 668,4 -4,4"/>
<text text-anchor="start" x="311.01" y="-42.4" font-family="sans-serif" font-weight="bold" font-size="14.00">Legend</text>
<polygon fill="#ffffb3" stroke="transparent" points="98,-10 98,-30 118,-30 118,-10 98,-10"/>
<text text-anchor="start" x="121.63" y="-15.4" font-family="sans-serif" font-size="14.00"> &#160;Declarations</text>
<polygon fill="#8dd3c7" stroke="transparent" points="211,-10 211,-30 231,-30 231,-10 211,-10"/>
<text text-anchor="start" x="234.73" y="-15.4" font-family="sans-serif" font-size="14.00"> &#160;Module</text>
<polygon fill="#80b1d3" stroke="transparent" points="297,-10 297,-30 317,-30 317,-10 297,-10"/>
<text text-anchor="start" x="320.78" y="-15.4" font-family="sans-serif" font-size="14.00"> &#160;Bootstrap</text>
<polygon fill="#fdb462" stroke="transparent" points="394,-10 394,-30 414,-30 414,-10 394,-10"/>
<text text-anchor="start" x="417.67" y="-15.4" font-family="sans-serif" font-size="14.00"> &#160;Providers</text>
<polygon fill="#fb8072" stroke="transparent" points="490,-10 490,-30 510,-30 510,-10 490,-10"/>
<text text-anchor="start" x="513.73" y="-15.4" font-family="sans-serif" font-size="14.00"> &#160;Exports</text>
<g id="clust1" class="cluster">
<title>cluster_AngularHalModule</title>
<polygon fill="none" stroke="black" stroke-dasharray="1,5" points="8,-70 8,-195 186,-195 186,-70 8,-70"/>
</g>
<g id="clust6" class="cluster">
<title>cluster_AngularHalModule_providers</title>
<polygon fill="none" stroke="black" points="16,-78 16,-130 178,-130 178,-78 16,-78"/>
</g>
<g id="clust7" class="cluster">
<title>cluster_SitmunFrontendCoreModule</title>
<polygon fill="none" stroke="black" stroke-dasharray="1,5" points="194,-70 194,-268 656,-268 656,-70 194,-70"/>
</g>
<g id="clust8" class="cluster">
<title>cluster_SitmunFrontendCoreModule_declarations</title>
<polygon fill="none" stroke="black" points="206,-78 206,-130 644,-130 644,-78 206,-78"/>
</g>
<g id="clust12" class="cluster">
<title>cluster_SitmunFrontendCoreModule_exports</title>
<polygon fill="none" stroke="black" points="202,-208 202,-260 648,-260 648,-208 202,-208"/>
</g>
<!-- ExternalService -->
<g id="node1" class="node">
<title>ExternalService</title>
<ellipse fill="#fdb462" stroke="black" cx="97" cy="-104" rx="72.91" ry="18"/>
<text text-anchor="middle" x="97" y="-99.8" font-family="Times,serif" font-size="14.00">ExternalService</text>
</g>
<!-- AngularHalModule -->
<g id="node2" class="node">
<title>AngularHalModule</title>
<polygon fill="#8dd3c7" stroke="black" points="159.63,-187 156.63,-191 135.63,-191 132.63,-187 34.37,-187 34.37,-151 159.63,-151 159.63,-187"/>
<text text-anchor="middle" x="97" y="-164.8" font-family="Times,serif" font-size="14.00">AngularHalModule</text>
</g>
<!-- ExternalService&#45;&gt;AngularHalModule -->
<g id="edge1" class="edge">
<title>ExternalService&#45;&gt;AngularHalModule</title>
<path fill="none" stroke="black" d="M97,-122.11C97,-122.11 97,-140.99 97,-140.99"/>
<polygon fill="black" stroke="black" points="93.5,-140.99 97,-150.99 100.5,-140.99 93.5,-140.99"/>
</g>
<!-- HasAnyAuthorityDirective -->
<g id="node3" class="node">
<title>HasAnyAuthorityDirective</title>
<polygon fill="#ffffb3" stroke="black" points="636.39,-122 467.61,-122 467.61,-86 636.39,-86 636.39,-122"/>
<text text-anchor="middle" x="552" y="-99.8" font-family="Times,serif" font-size="14.00">HasAnyAuthorityDirective</text>
</g>
<!-- SitmunFrontendCoreModule -->
<g id="node5" class="node">
<title>SitmunFrontendCoreModule</title>
<polygon fill="#8dd3c7" stroke="black" points="421.76,-187 418.76,-191 397.76,-191 394.76,-187 244.24,-187 244.24,-151 421.76,-151 421.76,-187"/>
<text text-anchor="middle" x="333" y="-164.8" font-family="Times,serif" font-size="14.00">SitmunFrontendCoreModule</text>
</g>
<!-- HasAnyAuthorityDirective&#45;&gt;SitmunFrontendCoreModule -->
<g id="edge2" class="edge">
<title>HasAnyAuthorityDirective&#45;&gt;SitmunFrontendCoreModule</title>
<path fill="none" stroke="black" d="M580.15,-122.02C580.15,-139.37 580.15,-163 580.15,-163 580.15,-163 431.88,-163 431.88,-163"/>
<polygon fill="black" stroke="black" points="431.88,-159.5 421.88,-163 431.88,-166.5 431.88,-159.5"/>
</g>
<!-- HasAnyAuthorityOnTerritoryDirective -->
<g id="node4" class="node">
<title>HasAnyAuthorityOnTerritoryDirective</title>
<polygon fill="#ffffb3" stroke="black" points="450.03,-122 213.97,-122 213.97,-86 450.03,-86 450.03,-122"/>
<text text-anchor="middle" x="332" y="-99.8" font-family="Times,serif" font-size="14.00">HasAnyAuthorityOnTerritoryDirective</text>
</g>
<!-- HasAnyAuthorityOnTerritoryDirective&#45;&gt;SitmunFrontendCoreModule -->
<g id="edge3" class="edge">
<title>HasAnyAuthorityOnTerritoryDirective&#45;&gt;SitmunFrontendCoreModule</title>
<path fill="none" stroke="black" d="M333,-122.11C333,-122.11 333,-140.99 333,-140.99"/>
<polygon fill="black" stroke="black" points="329.5,-140.99 333,-150.99 336.5,-140.99 329.5,-140.99"/>
</g>
<!-- HasAnyAuthorityDirective  -->
<g id="node6" class="node">
<title>HasAnyAuthorityDirective </title>
<polygon fill="#fb8072" stroke="black" points="639.89,-252 468.11,-252 468.11,-216 639.89,-216 639.89,-252"/>
<text text-anchor="middle" x="554" y="-229.8" font-family="Times,serif" font-size="14.00">HasAnyAuthorityDirective </text>
</g>
<!-- SitmunFrontendCoreModule&#45;&gt;HasAnyAuthorityDirective  -->
<g id="edge4" class="edge">
<title>SitmunFrontendCoreModule&#45;&gt;HasAnyAuthorityDirective </title>
<path fill="none" stroke="black" stroke-dasharray="5,2" d="M421.84,-175C471.74,-175 524.1,-175 524.1,-175 524.1,-175 524.1,-205.98 524.1,-205.98"/>
<polygon fill="black" stroke="black" points="520.6,-205.98 524.1,-215.98 527.6,-205.98 520.6,-205.98"/>
</g>
<!-- HasAnyAuthorityOnTerritoryDirective  -->
<g id="node7" class="node">
<title>HasAnyAuthorityOnTerritoryDirective </title>
<polygon fill="#fb8072" stroke="black" points="449.53,-252 210.47,-252 210.47,-216 449.53,-216 449.53,-252"/>
<text text-anchor="middle" x="330" y="-229.8" font-family="Times,serif" font-size="14.00">HasAnyAuthorityOnTerritoryDirective </text>
</g>
<!-- SitmunFrontendCoreModule&#45;&gt;HasAnyAuthorityOnTerritoryDirective  -->
<g id="edge5" class="edge">
<title>SitmunFrontendCoreModule&#45;&gt;HasAnyAuthorityOnTerritoryDirective </title>
<path fill="none" stroke="black" stroke-dasharray="5,2" d="M333,-187.11C333,-187.11 333,-205.99 333,-205.99"/>
<polygon fill="black" stroke="black" points="329.5,-205.99 333,-215.99 336.5,-205.99 329.5,-205.99"/>
</g>
</g>
</svg>
