<?xml version="1.0" encoding="UTF-8" standalone="no"?>
<!DOCTYPE svg PUBLIC "-//W3C//DTD SVG 1.1//EN"
 "http://www.w3.org/Graphics/SVG/1.1/DTD/svg11.dtd">
<!-- Generated by graphviz version 2.40.1 (20161225.0304)
 -->
<!-- Title: dependencies Pages: 1 -->
<svg width="504pt" height="284pt"
 viewBox="0.00 0.00 504.00 284.00" xmlns="http://www.w3.org/2000/svg" xmlns:xlink="http://www.w3.org/1999/xlink">
<g id="graph0" class="graph" transform="scale(1 1) rotate(0) translate(4 280)">
<title>dependencies</title>
<polygon fill="#ffffff" stroke="transparent" points="-4,4 -4,-280 500,-280 500,4 -4,4"/>
<text text-anchor="start" x="227.0091" y="-42.4" font-family="sans-serif" font-weight="bold" font-size="14.00" fill="#000000">Legend</text>
<polygon fill="#ffffb3" stroke="transparent" points="14,-10 14,-30 34,-30 34,-10 14,-10"/>
<text text-anchor="start" x="37.629" y="-15.4" font-family="sans-serif" font-size="14.00" fill="#000000"> &#160;Declarations</text>
<polygon fill="#8dd3c7" stroke="transparent" points="127,-10 127,-30 147,-30 147,-10 127,-10"/>
<text text-anchor="start" x="150.7251" y="-15.4" font-family="sans-serif" font-size="14.00" fill="#000000"> &#160;Module</text>
<polygon fill="#80b1d3" stroke="transparent" points="213,-10 213,-30 233,-30 233,-10 213,-10"/>
<text text-anchor="start" x="236.7812" y="-15.4" font-family="sans-serif" font-size="14.00" fill="#000000"> &#160;Bootstrap</text>
<polygon fill="#fdb462" stroke="transparent" points="310,-10 310,-30 330,-30 330,-10 310,-10"/>
<text text-anchor="start" x="333.6732" y="-15.4" font-family="sans-serif" font-size="14.00" fill="#000000"> &#160;Providers</text>
<polygon fill="#fb8072" stroke="transparent" points="406,-10 406,-30 426,-30 426,-10 406,-10"/>
<text text-anchor="start" x="429.7258" y="-15.4" font-family="sans-serif" font-size="14.00" fill="#000000"> &#160;Exports</text>
<g id="clust1" class="cluster">
<title>cluster_SitmunFrontendCoreModule</title>
<polygon fill="none" stroke="#000000" stroke-dasharray="1,5" points="17,-70 17,-268 479,-268 479,-70 17,-70"/>
</g>
<g id="clust2" class="cluster">
<title>cluster_SitmunFrontendCoreModule_declarations</title>
<polygon fill="none" stroke="#000000" points="29,-78 29,-130 467,-130 467,-78 29,-78"/>
</g>
<g id="clust6" class="cluster">
<title>cluster_SitmunFrontendCoreModule_exports</title>
<polygon fill="none" stroke="#000000" points="25,-208 25,-260 471,-260 471,-208 25,-208"/>
</g>
<!-- HasAnyAuthorityDirective -->
<g id="node1" class="node">
<title>HasAnyAuthorityDirective</title>
<polygon fill="#ffffb3" stroke="#000000" points="459.3947,-122 290.6053,-122 290.6053,-86 459.3947,-86 459.3947,-122"/>
<text text-anchor="middle" x="375" y="-99.8" font-family="Times,serif" font-size="14.00" fill="#000000">HasAnyAuthorityDirective</text>
</g>
<!-- SitmunFrontendCoreModule -->
<g id="node3" class="node">
<title>SitmunFrontendCoreModule</title>
<polygon fill="#8dd3c7" stroke="#000000" points="244.7646,-187 241.7646,-191 220.7646,-191 217.7646,-187 67.2354,-187 67.2354,-151 244.7646,-151 244.7646,-187"/>
<text text-anchor="middle" x="156" y="-164.8" font-family="Times,serif" font-size="14.00" fill="#000000">SitmunFrontendCoreModule</text>
</g>
<!-- HasAnyAuthorityDirective&#45;&gt;SitmunFrontendCoreModule -->
<g id="edge1" class="edge">
<title>HasAnyAuthorityDirective&#45;&gt;SitmunFrontendCoreModule</title>
<path fill="none" stroke="#000000" d="M403.149,-122.0225C403.149,-139.3734 403.149,-163 403.149,-163 403.149,-163 254.8773,-163 254.8773,-163"/>
<polygon fill="#000000" stroke="#000000" points="254.8773,-159.5001 244.8773,-163 254.8773,-166.5001 254.8773,-159.5001"/>
</g>
<!-- HasAnyAuthorityOnTerritoryDirective -->
<g id="node2" class="node">
<title>HasAnyAuthorityOnTerritoryDirective</title>
<polygon fill="#ffffb3" stroke="#000000" points="273.031,-122 36.969,-122 36.969,-86 273.031,-86 273.031,-122"/>
<text text-anchor="middle" x="155" y="-99.8" font-family="Times,serif" font-size="14.00" fill="#000000">HasAnyAuthorityOnTerritoryDirective</text>
</g>
<!-- HasAnyAuthorityOnTerritoryDirective&#45;&gt;SitmunFrontendCoreModule -->
<g id="edge2" class="edge">
<title>HasAnyAuthorityOnTerritoryDirective&#45;&gt;SitmunFrontendCoreModule</title>
<path fill="none" stroke="#000000" d="M156,-122.1061C156,-122.1061 156,-140.991 156,-140.991"/>
<polygon fill="#000000" stroke="#000000" points="152.5001,-140.9909 156,-150.991 159.5001,-140.991 152.5001,-140.9909"/>
</g>
<!-- HasAnyAuthorityDirective  -->
<g id="node4" class="node">
<title>HasAnyAuthorityDirective </title>
<polygon fill="#fb8072" stroke="#000000" points="462.8942,-252 291.1058,-252 291.1058,-216 462.8942,-216 462.8942,-252"/>
<text text-anchor="middle" x="377" y="-229.8" font-family="Times,serif" font-size="14.00" fill="#000000">HasAnyAuthorityDirective </text>
</g>
<!-- SitmunFrontendCoreModule&#45;&gt;HasAnyAuthorityDirective  -->
<g id="edge3" class="edge">
<title>SitmunFrontendCoreModule&#45;&gt;HasAnyAuthorityDirective </title>
<path fill="none" stroke="#000000" stroke-dasharray="5,2" d="M244.837,-175C294.7418,-175 347.101,-175 347.101,-175 347.101,-175 347.101,-205.9775 347.101,-205.9775"/>
<polygon fill="#000000" stroke="#000000" points="343.6011,-205.9774 347.101,-215.9775 350.6011,-205.9775 343.6011,-205.9774"/>
</g>
<!-- HasAnyAuthorityOnTerritoryDirective  -->
<g id="node5" class="node">
<title>HasAnyAuthorityOnTerritoryDirective </title>
<polygon fill="#fb8072" stroke="#000000" points="272.5315,-252 33.4685,-252 33.4685,-216 272.5315,-216 272.5315,-252"/>
<text text-anchor="middle" x="153" y="-229.8" font-family="Times,serif" font-size="14.00" fill="#000000">HasAnyAuthorityOnTerritoryDirective </text>
</g>
<!-- SitmunFrontendCoreModule&#45;&gt;HasAnyAuthorityOnTerritoryDirective  -->
<g id="edge4" class="edge">
<title>SitmunFrontendCoreModule&#45;&gt;HasAnyAuthorityOnTerritoryDirective </title>
<path fill="none" stroke="#000000" stroke-dasharray="5,2" d="M156,-187.1061C156,-187.1061 156,-205.991 156,-205.991"/>
<polygon fill="#000000" stroke="#000000" points="152.5001,-205.9909 156,-215.991 159.5001,-205.991 152.5001,-205.9909"/>
</g>
</g>
</svg>
