<?xml version="1.0" encoding="UTF-8" standalone="no"?>
<!DOCTYPE svg PUBLIC "-//W3C//DTD SVG 1.1//EN"
 "http://www.w3.org/Graphics/SVG/1.1/DTD/svg11.dtd">
<!-- Generated by graphviz version 2.40.1 (20161225.0304)
 -->
<!-- Title: dependencies Pages: 1 -->
<svg width="594pt" height="284pt"
 viewBox="0.00 0.00 594.00 284.00" xmlns="http://www.w3.org/2000/svg" xmlns:xlink="http://www.w3.org/1999/xlink">
<g id="graph0" class="graph" transform="scale(1 1) rotate(0) translate(4 280)">
<title>dependencies</title>
<polygon fill="#ffffff" stroke="transparent" points="-4,4 -4,-280 590,-280 590,4 -4,4"/>
<text text-anchor="start" x="272.0091" y="-42.4" font-family="sans-serif" font-weight="bold" font-size="14.00" fill="#000000">Legend</text>
<polygon fill="#ffffb3" stroke="transparent" points="59,-10 59,-30 79,-30 79,-10 59,-10"/>
<text text-anchor="start" x="82.629" y="-15.4" font-family="sans-serif" font-size="14.00" fill="#000000"> &#160;Declarations</text>
<polygon fill="#8dd3c7" stroke="transparent" points="172,-10 172,-30 192,-30 192,-10 172,-10"/>
<text text-anchor="start" x="195.7251" y="-15.4" font-family="sans-serif" font-size="14.00" fill="#000000"> &#160;Module</text>
<polygon fill="#80b1d3" stroke="transparent" points="258,-10 258,-30 278,-30 278,-10 258,-10"/>
<text text-anchor="start" x="281.7812" y="-15.4" font-family="sans-serif" font-size="14.00" fill="#000000"> &#160;Bootstrap</text>
<polygon fill="#fdb462" stroke="transparent" points="355,-10 355,-30 375,-30 375,-10 355,-10"/>
<text text-anchor="start" x="378.6732" y="-15.4" font-family="sans-serif" font-size="14.00" fill="#000000"> &#160;Providers</text>
<polygon fill="#fb8072" stroke="transparent" points="451,-10 451,-30 471,-30 471,-10 451,-10"/>
<text text-anchor="start" x="474.7258" y="-15.4" font-family="sans-serif" font-size="14.00" fill="#000000"> &#160;Exports</text>
<g id="clust1" class="cluster">
<title>cluster_SitmunFrontendCoreModule</title>
<polygon fill="none" stroke="#000000" stroke-dasharray="1,5" points="8,-70 8,-268 578,-268 578,-70 8,-70"/>
</g>
<g id="clust2" class="cluster">
<title>cluster_SitmunFrontendCoreModule_declarations</title>
<polygon fill="none" stroke="#000000" points="132,-78 132,-130 570,-130 570,-78 132,-78"/>
</g>
<g id="clust6" class="cluster">
<title>cluster_SitmunFrontendCoreModule_exports</title>
<polygon fill="none" stroke="#000000" points="70,-208 70,-260 516,-260 516,-208 70,-208"/>
</g>
<g id="clust8" class="cluster">
<title>cluster_SitmunFrontendCoreModule_providers</title>
<polygon fill="none" stroke="#000000" points="16,-78 16,-130 124,-130 124,-78 16,-78"/>
</g>
<!-- HasAnyAuthorityDirective -->
<g id="node1" class="node">
<title>HasAnyAuthorityDirective</title>
<polygon fill="#ffffb3" stroke="#000000" points="562.3947,-122 393.6053,-122 393.6053,-86 562.3947,-86 562.3947,-122"/>
<text text-anchor="middle" x="478" y="-99.8" font-family="Times,serif" font-size="14.00" fill="#000000">HasAnyAuthorityDirective</text>
</g>
<!-- SitmunFrontendCoreModule -->
<g id="node3" class="node">
<title>SitmunFrontendCoreModule</title>
<polygon fill="#8dd3c7" stroke="#000000" points="346.7646,-187 343.7646,-191 322.7646,-191 319.7646,-187 169.2354,-187 169.2354,-151 346.7646,-151 346.7646,-187"/>
<text text-anchor="middle" x="258" y="-164.8" font-family="Times,serif" font-size="14.00" fill="#000000">SitmunFrontendCoreModule</text>
</g>
<!-- HasAnyAuthorityDirective&#45;&gt;SitmunFrontendCoreModule -->
<g id="edge1" class="edge">
<title>HasAnyAuthorityDirective&#45;&gt;SitmunFrontendCoreModule</title>
<path fill="none" stroke="#000000" d="M450.875,-122.1061C450.875,-141.3391 450.875,-169 450.875,-169 450.875,-169 356.8162,-169 356.8162,-169"/>
<polygon fill="#000000" stroke="#000000" points="356.8162,-165.5001 346.8162,-169 356.8162,-172.5001 356.8162,-165.5001"/>
</g>
<!-- HasAnyAuthorityOnTerritoryDirective -->
<g id="node2" class="node">
<title>HasAnyAuthorityOnTerritoryDirective</title>
<polygon fill="#ffffb3" stroke="#000000" points="376.031,-122 139.969,-122 139.969,-86 376.031,-86 376.031,-122"/>
<text text-anchor="middle" x="258" y="-99.8" font-family="Times,serif" font-size="14.00" fill="#000000">HasAnyAuthorityOnTerritoryDirective</text>
</g>
<!-- HasAnyAuthorityOnTerritoryDirective&#45;&gt;SitmunFrontendCoreModule -->
<g id="edge2" class="edge">
<title>HasAnyAuthorityOnTerritoryDirective&#45;&gt;SitmunFrontendCoreModule</title>
<path fill="none" stroke="#000000" d="M258,-122.1061C258,-122.1061 258,-140.991 258,-140.991"/>
<polygon fill="#000000" stroke="#000000" points="254.5001,-140.9909 258,-150.991 261.5001,-140.991 254.5001,-140.9909"/>
</g>
<!-- HasAnyAuthorityDirective  -->
<g id="node4" class="node">
<title>HasAnyAuthorityDirective </title>
<polygon fill="#fb8072" stroke="#000000" points="507.8942,-252 336.1058,-252 336.1058,-216 507.8942,-216 507.8942,-252"/>
<text text-anchor="middle" x="422" y="-229.8" font-family="Times,serif" font-size="14.00" fill="#000000">HasAnyAuthorityDirective </text>
</g>
<!-- SitmunFrontendCoreModule&#45;&gt;HasAnyAuthorityDirective  -->
<g id="edge3" class="edge">
<title>SitmunFrontendCoreModule&#45;&gt;HasAnyAuthorityDirective </title>
<path fill="none" stroke="#000000" stroke-dasharray="5,2" d="M341.4676,-187.1061C341.4676,-187.1061 341.4676,-205.991 341.4676,-205.991"/>
<polygon fill="#000000" stroke="#000000" points="337.9676,-205.9909 341.4676,-215.991 344.9676,-205.991 337.9676,-205.9909"/>
</g>
<!-- HasAnyAuthorityOnTerritoryDirective  -->
<g id="node5" class="node">
<title>HasAnyAuthorityOnTerritoryDirective </title>
<polygon fill="#fb8072" stroke="#000000" points="317.5315,-252 78.4685,-252 78.4685,-216 317.5315,-216 317.5315,-252"/>
<text text-anchor="middle" x="198" y="-229.8" font-family="Times,serif" font-size="14.00" fill="#000000">HasAnyAuthorityOnTerritoryDirective </text>
</g>
<!-- SitmunFrontendCoreModule&#45;&gt;HasAnyAuthorityOnTerritoryDirective  -->
<g id="edge4" class="edge">
<title>SitmunFrontendCoreModule&#45;&gt;HasAnyAuthorityOnTerritoryDirective </title>
<path fill="none" stroke="#000000" stroke-dasharray="5,2" d="M243.4417,-187.1061C243.4417,-187.1061 243.4417,-205.991 243.4417,-205.991"/>
<polygon fill="#000000" stroke="#000000" points="239.9417,-205.9909 243.4417,-215.991 246.9417,-205.991 239.9417,-205.9909"/>
</g>
<!-- Principal -->
<g id="node6" class="node">
<title>Principal</title>
<ellipse fill="#fdb462" stroke="#000000" cx="70" cy="-104" rx="45.8022" ry="18"/>
<text text-anchor="middle" x="70" y="-99.8" font-family="Times,serif" font-size="14.00" fill="#000000">Principal</text>
</g>
<!-- Principal&#45;&gt;SitmunFrontendCoreModule -->
<g id="edge5" class="edge">
<title>Principal&#45;&gt;SitmunFrontendCoreModule</title>
<path fill="none" stroke="#000000" d="M97.0677,-118.7495C97.0677,-137.9272 97.0677,-169 97.0677,-169 97.0677,-169 159.0612,-169 159.0612,-169"/>
<polygon fill="#000000" stroke="#000000" points="159.0612,-172.5001 169.0612,-169 159.0612,-165.5001 159.0612,-172.5001"/>
</g>
</g>
</svg>
