<svg xmlns="http://www.w3.org/2000/svg" width="16" height="16" viewBox="0 0 16 16"><defs><style>.a{fill:rgba(139,60,60,0);}</style></defs><g transform="translate(105.145 -255.924)"><rect class="a" width="16" height="16" transform="translate(-105.145 255.924)"/><path d="M-97.4,263.967a3.78,3.78,0,0,0,3.78-3.78,3.779,3.779,0,0,0-3.78-3.78,3.779,3.779,0,0,0-3.78,3.78,3.777,3.777,0,0,0,3.775,3.78Zm2.592,1.08h-.28a5.222,5.222,0,0,1-4.623,0h-.276a3.888,3.888,0,0,0-3.887,3.887v.971a1.622,1.622,0,0,0,1.619,1.62h9.718a1.622,1.622,0,0,0,1.619-1.62v-.971a3.888,3.888,0,0,0-3.889-3.887Z" transform="translate(0.166 0.042)"/></g></svg>