<svg xmlns="http://www.w3.org/2000/svg" width="16" height="16.001" viewBox="0 0 16 16.001"><defs><style>.a{fill:#fff;opacity:0;isolation:isolate;}</style></defs><g transform="translate(144.901 -353.292)"><rect class="a" width="16" height="16" transform="translate(-144.901 353.292)"/><path d="M-133.282,359.073V357.5a3.93,3.93,0,0,0-3.93-3.93,3.93,3.93,0,0,0-3.93,3.93v1.572a2.317,2.317,0,0,0-2.358,2.274q0,.042,0,.084v5.5a2.316,2.316,0,0,0,2.274,2.358q.042,0,.084,0h7.861a2.317,2.317,0,0,0,2.358-2.274v-5.587a2.317,2.317,0,0,0-2.274-2.358Zm-6.288-1.572a2.358,2.358,0,0,1,2.358-2.358,2.358,2.358,0,0,1,2.358,2.358v1.572h-4.716Zm3.223,6.681-.079.079v1.1a.786.786,0,0,1-.787.786.787.787,0,0,1-.785-.786v-1.1a1.168,1.168,0,0,1-.08-1.651,1.169,1.169,0,0,1,1.652-.08,1.17,1.17,0,0,1,.079,1.652Z" transform="translate(0.172)"/></g></svg>