<svg xmlns="http://www.w3.org/2000/svg" width="16" height="16" viewBox="0 0 16 16"><defs><style>.a{fill:none;}</style></defs><g transform="translate(122.291 -261.027)"><rect class="a" width="16" height="16" transform="translate(-122.291 261.027)"/><g transform="translate(-122.291 263.09)"><path d="M-112.783,268.933h0a3.025,3.025,0,0,0,3.023-3.027h0a3.025,3.025,0,0,0-3.028-3.023h0a2.991,2.991,0,0,0-1.864.66,4.046,4.046,0,0,1,.767,2.366,4.041,4.041,0,0,1-.77,2.366A3,3,0,0,0-112.783,268.933Z" transform="translate(123.259 -262.883)"/><path d="M-110.886,268.924h-.4a4.11,4.11,0,0,1-1.634.368,4.2,4.2,0,0,1,1.081,2.808v.982a2.166,2.166,0,0,1-.326,1.136h3.314a1.135,1.135,0,0,0,1.139-1.127V272.1a3.176,3.176,0,0,0-3.173-3.18Z" transform="translate(123.479 -262.117)"/><path d="M-117.252,268.933a3.014,3.014,0,0,0,2.591-1.486,2.989,2.989,0,0,0,.433-1.539,2.989,2.989,0,0,0-.433-1.539,3.012,3.012,0,0,0-2.591-1.486,3.025,3.025,0,0,0-3.025,3.025A3.025,3.025,0,0,0-117.252,268.933Z" transform="translate(122.546 -262.883)"/><path d="M-114.405,268.971a3.035,3.035,0,0,0-.473-.047h-.4A4.114,4.114,0,0,1-117,269.3a4.118,4.118,0,0,1-1.723-.379h-.4a3.178,3.178,0,0,0-3.176,3.176v.982a1.135,1.135,0,0,0,1.135,1.135h8.319a1.135,1.135,0,0,0,1.135-1.135V272.1A3.167,3.167,0,0,0-114.405,268.971Z" transform="translate(122.291 -262.117)"/></g></g></svg>