<svg xmlns="http://www.w3.org/2000/svg" width="16" height="16" viewBox="0 0 16 16"><defs><style>.a{fill:none;}</style></defs><g transform="translate(127.808 -335.386)"><rect class="a" width="16" height="16" transform="translate(-127.808 335.386)"/><path d="M-113.875,339.243v.187h-3.956v-3.955h.19a.744.744,0,0,1,.524.217l3.026,3.026A.741.741,0,0,1-113.875,339.243Zm-4.2,1.176a.744.744,0,0,1-.744-.744h0v-4.2H-125a.742.742,0,0,0-.742.742v14.337a.742.742,0,0,0,.742.742h10.382a.742.742,0,0,0,.742-.742V340.419Zm-4.186.494a1.483,1.483,0,0,1,1.48,1.486,1.482,1.482,0,0,1-1.486,1.48,1.483,1.483,0,0,1-1.48-1.482,1.484,1.484,0,0,1,1.482-1.484h0Zm6.42,7.417h-7.906l.015-1.5,1.221-1.22a.353.353,0,0,1,.5.005l.01.01,1.221,1.221,3.2-3.2a.372.372,0,0,1,.524,0l1.216,1.223Z"/></g></svg>