<svg xmlns="http://www.w3.org/2000/svg" width="16" height="16" viewBox="0 0 16 16"><defs><style>.a{fill:rgba(255,255,255,0);}</style></defs><g transform="translate(106.055 -305.295)"><rect class="a" width="16" height="16" transform="translate(-106.055 305.295)"/><path d="M-105.445,310.884l7,4.045a.7.7,0,0,0,.389.078.7.7,0,0,0,.389-.078l7-4.045a.606.606,0,0,0,.314-.312.859.859,0,0,0-.311-1.089l-7-4.045a.705.705,0,0,0-.778,0l-7,4.045a.605.605,0,0,0-.311.311A.862.862,0,0,0-105.445,310.884Zm14.781,1.712-.156-.078-6.846,3.968a.709.709,0,0,1-.778,0l-6.846-3.968-.156.078a.862.862,0,0,0-.311,1.089.609.609,0,0,0,.311.311l7,4.045a.709.709,0,0,0,.778,0l7-4.045a.86.86,0,0,0,.311-1.089A.6.6,0,0,0-90.664,312.6Zm0,3.112-.156-.078-6.846,3.968a.709.709,0,0,1-.778,0l-6.846-3.968-.156.078a.862.862,0,0,0-.311,1.089.609.609,0,0,0,.311.311l7,4.045a.709.709,0,0,0,.778,0l7-4.045a.86.86,0,0,0,.311-1.089A.6.6,0,0,0-90.664,315.708Z"/></g></svg>